<?xml version="1.0" encoding="UTF-8"?>
<svg version="1.1" xmlns="http://www.w3.org/2000/svg" width="1024" height="1024">
<path d="M0 0 C19.4089724 0.24266637 38.81793442 0.48614889 58.2268858 0.73049068 C67.24785108 0.84403963 76.26881907 0.95736255 85.28979492 1.07006836 C94.88703002 1.18998795 104.48425469 1.31072243 114.08147454 1.43185592 C116.70741343 1.46494702 119.33335415 1.49788923 121.95929527 1.53080177 C140.33367858 1.76138715 158.70771945 2.00360868 177.08129883 2.29174805 C213.90778587 2.88866045 213.90778587 2.88866045 250.73828125 3.02734375 C251.59024771 3.02475744 252.44221416 3.02217113 253.31999779 3.01950645 C260.691523 2.99439069 268.06292009 2.95229902 275.43432617 2.90405273 C279.62466472 2.87727666 283.81495371 2.86027914 288.00536156 2.84918404 C290.27659493 2.84018714 292.5475297 2.81988612 294.81867981 2.79905701 C311.22332072 2.712934 311.22332072 2.712934 316.05053711 6.68896484 C316.5378833 7.35621582 317.02522949 8.0234668 317.52734375 8.7109375 C318.08663574 9.45448486 318.64592773 10.19803223 319.22216797 10.96411133 C319.78822754 11.75970459 320.35428711 12.55529785 320.9375 13.375 C321.5473877 14.19572998 322.15727539 15.01645996 322.78564453 15.86206055 C324.54108411 18.22923013 326.27126626 20.61330355 328 23 C329.45461357 24.94029423 330.91237314 26.87823915 332.375 28.8125 C333.06464844 29.73804688 333.75429688 30.66359375 334.46484375 31.6171875 C349.51342753 51.94336115 349.51342753 51.94336115 365.265625 71.71875 C367 74 367 74 367 76 C367.99 76.33 368.98 76.66 370 77 C369.38117286 81.55840273 367.53092697 85.27940057 365.4375 89.3125 C364.70687121 90.74601219 363.97640701 92.17960829 363.24609375 93.61328125 C362.87210449 94.34240723 362.49811523 95.0715332 362.11279297 95.82275391 C360.38493281 99.20341579 358.69335122 102.60196096 357 106 C356.33352893 107.33343111 355.6668617 108.6667642 355 110 C354.67 110.66 354.34 111.32 354 112 C353 114 352 116 351 118 C350.66967773 118.66080566 350.33935547 119.32161133 349.99902344 120.00244141 C349.33613335 121.32789759 348.67272672 122.65309559 348.00878906 123.97802734 C346.27988804 127.42987939 344.5617589 130.88654699 342.859375 134.3515625 C342.50617188 135.06699219 342.15296875 135.78242188 341.7890625 136.51953125 C341.11902138 137.87724615 340.45211388 139.23651419 339.7890625 140.59765625 C333.06361061 154.18985103 322.37282555 161.01261822 310.265625 169.42382812 C306.68724849 171.91326765 303.12414484 174.42420403 299.5625 176.9375 C298.86455322 177.42951904 298.16660645 177.92153809 297.44750977 178.4284668 C291.52033516 182.61463147 285.63474399 186.85705535 279.76586914 191.12451172 C275.92588574 193.91104835 272.06527822 196.6586282 268.15625 199.34765625 C266.98449219 200.15783203 266.98449219 200.15783203 265.7890625 200.984375 C264.29939614 202.01138047 262.80482054 203.0313132 261.3046875 204.04296875 C260.30308594 204.73519531 260.30308594 204.73519531 259.28125 205.44140625 C258.40049805 206.03997437 258.40049805 206.03997437 257.50195312 206.65063477 C255.72627682 208.24591483 254.93989095 209.82433719 254 212 C254.3717334 212.44690186 254.7434668 212.89380371 255.12646484 213.35424805 C262.10339941 221.75344523 269.01638723 230.179 275.62109375 238.875 C278.12290853 242.1614562 280.65649928 245.4216018 283.19506836 248.6796875 C284.88717095 250.8549537 286.57188988 253.03568029 288.25390625 255.21875 C294.709761 263.58096018 301.27836473 271.82536726 308.02734375 279.95288086 C312.28418618 285.09237094 316.37000053 290.33032206 320.40234375 295.6484375 C322.38599802 298.23801086 324.43298655 300.76876603 326.50390625 303.2890625 C327.40387329 304.38432251 327.40387329 304.38432251 328.32202148 305.50170898 C329.50601317 306.93708848 330.69420492 308.36901583 331.88696289 309.79711914 C332.42184326 310.44543701 332.95672363 311.09375488 333.5078125 311.76171875 C333.98879395 312.33881592 334.46977539 312.91591309 334.96533203 313.51049805 C336 315 336 315 336 317 C336.66 317 337.32 317 338 317 C338.33 317.99 338.66 318.98 339 320 C329.36918377 326.8928307 319.41625867 333.26359682 309.40844727 339.58984375 C308.35197998 340.26015625 307.2955127 340.93046875 306.20703125 341.62109375 C305.2528833 342.2236499 304.29873535 342.82620605 303.31567383 343.44702148 C300.93707991 344.93397046 300.93707991 344.93397046 299 347 C297.72484576 347.73764528 296.42995309 348.44145314 295.125 349.125 C290.47596955 351.66549381 286.13668262 354.54232553 281.75 357.5078125 C276.99315833 360.69585204 272.14835714 363.74629222 267.3125 366.8125 C260.62606526 371.05351664 253.95161158 375.31024857 247.3125 379.625 C241.52981241 383.38179633 235.7136352 387.08081609 229.875 390.75 C221.49368094 396.01888131 213.19447423 401.4087827 204.91552734 406.83691406 C200.17084833 409.94541038 195.4152908 413.01723776 190.56518555 415.95922852 C188.82897374 417.03950512 188.82897374 417.03950512 187 419 C184.72841954 420.32226325 182.41361996 421.54599457 180.09375 422.78125 C177.87810014 423.95163911 177.87810014 423.95163911 176 426 C174.5412285 426.88854962 173.05909432 427.73925025 171.5625 428.5625 C170.78003906 428.99691406 169.99757813 429.43132812 169.19140625 429.87890625 C167 431 167 431 164 432 C163.67 432.99 163.34 433.98 163 435 C162.34 435 161.68 435 161 435 C159.28137242 435.98758209 157.5982683 437.03724324 155.93359375 438.11328125 C154.89887939 438.77900146 153.86416504 439.44472168 152.7980957 440.13061523 C151.67783328 440.85781179 150.55763609 441.58510885 149.4375 442.3125 C148.29477083 443.04995716 147.15178434 443.78701573 146.00854492 444.52368164 C142.66899761 446.67727962 139.33440516 448.83844948 136 451 C134.35176618 452.06541933 132.70335414 453.13056304 131.0546875 454.1953125 C128.96771651 455.54334255 126.88160038 456.8925613 124.79882812 458.24707031 C121.49945987 460.39248042 118.18869022 462.51526988 114.8515625 464.6015625 C113.86192505 465.22430054 113.86192505 465.22430054 112.85229492 465.85961914 C111.60878105 466.6407989 110.3617199 467.41637047 109.1105957 468.18530273 C107.70574654 469.07080994 106.34697749 470.02872463 105 471 C105 471.66 105 472.32 105 473 C104.34902344 473.05542969 103.69804687 473.11085938 103.02734375 473.16796875 C98.64927068 474.3712327 95.30713293 476.79764226 91.5625 479.3125 C90.82451172 479.79912109 90.08652344 480.28574219 89.32617188 480.78710938 C87.88322668 481.74009451 86.4438017 482.69843552 85.00830078 483.66259766 C83.72553508 484.51683915 82.43297339 485.3566661 81.12841797 486.17724609 C79.71991139 487.06898331 78.35421775 488.02779613 77 489 C77 489.66 77 490.32 77 491 C76.29875 491.0825 75.5975 491.165 74.875 491.25 C71.28584036 492.18630251 68.89951721 493.70735849 66 496 C66 496.99 66 497.98 66 499 C64.99839844 498.85304688 64.99839844 498.85304688 63.9765625 498.703125 C59.63366975 499.13627441 56.91710817 501.31413336 53.375 503.75 C51.86019303 504.76164263 50.34453521 505.77201214 48.828125 506.78125 C48.03986328 507.30976562 47.25160156 507.83828125 46.43945312 508.3828125 C42.37860435 511.07487238 38.25104335 513.65944861 34.125 516.25 C32.53773665 517.25256654 30.95049636 518.25516959 29.36328125 519.2578125 C26.70301928 520.93439486 24.03572416 522.59777596 21.35546875 524.2421875 C19.84919922 525.17417969 19.84919922 525.17417969 18.3125 526.125 C17.03826172 526.90230469 17.03826172 526.90230469 15.73828125 527.6953125 C15.16464844 528.12585938 14.59101563 528.55640625 14 529 C14 529.66 14 530.32 14 531 C13.4212915 531.11843262 12.84258301 531.23686523 12.24633789 531.35888672 C9.87061241 532.03692771 8.15457043 532.95861762 6.05859375 534.2578125 C4.94303101 534.94435913 4.94303101 534.94435913 3.80493164 535.64477539 C3.0236792 536.13324951 2.24242676 536.62172363 1.4375 537.125 C0.63626709 537.62056396 -0.16496582 538.11612793 -0.99047852 538.62670898 C-14.00427614 545.25772112 -14.00427614 545.25772112 -23 555 C-23.67546875 555.07476563 -24.3509375 555.14953125 -25.046875 555.2265625 C-28.91425933 556.23944887 -31.93550895 558.22054003 -35.25 560.375 C-35.9394873 560.81473145 -36.62897461 561.25446289 -37.33935547 561.70751953 C-39.56489262 563.13023963 -41.78272186 564.56444842 -44 566 C-45.53887199 566.98987957 -47.07793466 567.97946276 -48.6171875 568.96875 C-51.50056582 570.82587246 -54.38154241 572.68657304 -57.2578125 574.5546875 C-57.89106445 574.96557617 -58.52431641 575.37646484 -59.17675781 575.79980469 C-60.37716271 576.59000159 -61.56956753 577.39250977 -62.75292969 578.20800781 C-66.8048727 581 -66.8048727 581 -69 581 C-67.73305961 577.05627172 -66.31527758 573.26226849 -64.64453125 569.47265625 C-64.18626953 568.43173828 -63.72800781 567.39082031 -63.25585938 566.31835938 C-62.54139648 564.70670898 -62.54139648 564.70670898 -61.8125 563.0625 C-61.35552734 562.02287109 -60.89855469 560.98324219 -60.42773438 559.91210938 C-57.9151957 554.22143579 -55.33861039 548.56680932 -52.69140625 542.9375 C-48.3408846 533.67595495 -44.24262278 524.30426671 -40.125 514.9375 C-38.45447085 511.14263523 -36.78242457 507.34844173 -35.109375 503.5546875 C-34.68784149 502.59879227 -34.26630798 501.64289703 -33.83200073 500.65803528 C-30.91678126 494.05562195 -27.97498351 487.46555022 -25.015625 480.8828125 C-24.62104095 480.00450272 -24.22645691 479.12619293 -23.81991577 478.2212677 C-21.94047242 474.03931905 -20.05713455 469.85918252 -18.16845703 465.68139648 C-17.49500252 464.18478466 -16.82165644 462.68812405 -16.1484375 461.19140625 C-15.8420636 460.51735748 -15.5356897 459.84330872 -15.22003174 459.14883423 C-13.63601199 455.62902837 -13.63601199 455.62902837 -12.50170898 451.94873047 C-11.72912129 448.947857 -10.24474502 446.37620052 -8.82421875 443.62890625 C-5.51504295 437.13383216 -2.51565248 430.53892102 0.36721802 423.84222412 C1.8529899 420.39220863 3.35280022 416.94829365 4.8515625 413.50390625 C5.33789909 412.38532227 5.33789909 412.38532227 5.83406067 411.24414062 C9.75608304 402.23866621 13.76076995 393.26999259 17.75952148 384.29840088 C24.31035698 369.60075391 30.8202382 354.88958207 37.1730957 340.10522461 C40.23291538 333.00784749 43.35978283 325.94475864 46.53515625 318.8984375 C46.92575729 318.03067184 47.31635834 317.16290619 47.71879578 316.2688446 C49.64872787 311.98331831 51.58468592 307.70067155 53.5300293 303.42211914 C54.23373596 301.86352291 54.93727601 300.30485143 55.640625 298.74609375 C56.1286837 297.68103104 56.1286837 297.68103104 56.62660217 296.5944519 C58.20358824 293.08634808 59.45083958 289.81684983 60 286 C60.66 286 61.32 286 62 286 C62.34933594 284.86820313 62.69867188 283.73640625 63.05859375 282.5703125 C65.38184892 275.63177719 68.20805868 268.90253735 71.08569336 262.17919922 C71.73629495 260.64448845 72.3750268 259.10469091 73.00170898 257.56005859 C77.02195857 247.66551491 80.23936146 241.25808102 90 236 C90.66 235.34 91.32 234.68 92 234 C93.60868453 232.93330954 95.23685637 231.89587212 96.875 230.875 C110.08942361 222.53895816 122.84826009 213.58255253 135.53125 204.46484375 C142.10713726 199.73911166 148.74057201 195.11558417 155.4375 190.5625 C161.57107673 186.38155542 167.67211978 182.16223942 173.6875 177.8125 C174.32937256 177.35496338 174.97124512 176.89742676 175.63256836 176.42602539 C177.12663109 175.33453823 178.56967185 174.17376704 180 173 C180 172.34 180 171.68 180 171 C180.5882959 170.88172852 181.1765918 170.76345703 181.78271484 170.64160156 C184.09938273 169.97124226 185.52783241 169.13589253 187.4765625 167.734375 C188.13865723 167.26265869 188.80075195 166.79094238 189.48291016 166.30493164 C190.1897998 165.7918042 190.89668945 165.27867676 191.625 164.75 C192.36411621 164.22075928 193.10323242 163.69151855 193.86474609 163.14624023 C196.24782587 161.43720583 198.62423159 159.71918024 201 158 C202.62480931 156.82916241 204.2498087 155.65858855 205.875 154.48828125 C209.59329703 151.80833243 213.30663027 149.12163652 217.01660156 146.43017578 C218.9684541 145.02274691 220.93262904 143.63393219 222.8984375 142.24609375 C225.93049842 140.17480983 225.93049842 140.17480983 228 138 C229.21560842 137.16735175 230.44754238 136.3584347 231.6875 135.5625 C236.04219413 132.69683031 240.24523845 129.65783898 244.4375 126.5625 C250.23092661 122.28494742 256.07042499 118.08791877 262 114 C260.93062616 108.25841883 258.05860866 103.13190926 253.8104248 99.15209961 C247.33217146 95.02953504 237.42195972 96.87096812 230.125 97.25 C228.11995164 97.3102681 226.11472904 97.36500785 224.109375 97.4140625 C219.71392856 97.53152992 215.32422578 97.70153435 210.93264771 97.91925049 C207.43831764 98.06524991 204.41052442 97.73741068 201 97 C200.67 97.66 200.34 98.32 200 99 C200 98.01 200 97.02 200 96 C186.635 96.495 186.635 96.495 173 97 C173 97.33 173 97.66 173 98 C164.42 98 155.84 98 147 98 C147 97.67 147 97.34 147 97 C144.03 96.505 144.03 96.505 141 96 C140.60554687 97.22976563 140.21109375 98.45953125 139.8046875 99.7265625 C137.81104811 105.70280625 135.4750503 111.53163168 133.125 117.375 C132.70347656 118.43460937 132.28195312 119.49421875 131.84765625 120.5859375 C129.42450983 126.63268821 126.86854015 132.59255281 124.14257812 138.50878906 C122.59749837 141.87759117 121.1392976 145.27746377 119.6875 148.6875 C119.17574219 149.88761719 118.66398438 151.08773437 118.13671875 152.32421875 C117.76160156 153.20722656 117.38648438 154.09023438 117 155 C112.97227772 153.45998854 111.1698475 150.97155339 108.625 147.5625 C108.19928711 146.99684326 107.77357422 146.43118652 107.33496094 145.84838867 C103.00055741 140.06687352 98.74920221 134.22222423 94.47753906 128.39428711 C87.53710239 118.95533093 80.44712537 109.58281947 72.9765625 100.5546875 C71.25440547 98.32881655 69.71350306 96.08184339 68.171875 93.73046875 C65.09504347 89.06213935 61.72463925 84.6889208 58.25 80.3125 C54.08702799 75.01709077 49.99202708 69.70318894 46.125 64.1875 C40.62278523 56.35118781 34.7762697 48.78176575 28.95703125 41.1796875 C25.0659575 36.09545064 21.21822886 30.98013611 17.39404297 25.84545898 C14.7572082 22.31322361 12.0847471 18.81352004 9.37109375 15.33984375 C8.76740967 14.56350586 8.16372559 13.78716797 7.54174805 12.98730469 C6.37092347 11.48448857 5.19423375 9.98621865 4.01098633 8.49316406 C3.48657959 7.81866211 2.96217285 7.14416016 2.421875 6.44921875 C1.95362305 5.85455811 1.48537109 5.25989746 1.00292969 4.6472168 C0 3 0 3 0 0 Z M196.8125 251.8125 C195.36472079 252.8270191 193.91680013 253.84133638 192.46875 254.85546875 C191.72753906 255.37802246 190.98632812 255.90057617 190.22265625 256.43896484 C186.77191664 258.86251812 183.29149082 261.24227464 179.8125 263.625 C173.85743617 267.71697854 167.9088588 271.81820207 161.97265625 275.9375 C160.04555516 277.27456882 158.1160108 278.60812572 156.18359375 279.9375 C155.31863281 280.535625 154.45367187 281.13375 153.5625 281.75 C152.82128906 282.26046875 152.08007812 282.7709375 151.31640625 283.296875 C150.55199219 283.85890625 149.78757812 284.4209375 149 285 C148.03940674 285.69786621 147.07881348 286.39573242 146.08911133 287.11474609 C142.4782654 290.15376443 140.98436701 293.55030678 139.2578125 297.8671875 C138.9320372 298.6428154 138.6062619 299.4184433 138.27061462 300.21757507 C137.20595476 302.76368288 136.16531484 305.31885975 135.125 307.875 C134.38734382 309.6541279 133.64830949 311.43268497 132.90795898 313.21069336 C131.36892599 316.91589245 129.84056258 320.62523451 128.32080078 324.33837891 C126.40699853 329.01386538 124.47537368 333.68168407 122.53601074 338.34661865 C120.70599405 342.74963448 118.88364588 347.15580913 117.0625 351.5625 C116.54565643 352.8112088 116.54565643 352.8112088 116.01837158 354.08514404 C115.04055185 356.45217862 114.06820565 358.82138285 113.09765625 361.19140625 C112.81196274 361.88143234 112.52626923 362.57145844 112.23191833 363.28239441 C110.52644514 367.46752844 109.1690365 371.63354427 108 376 C116.35684467 371.32899942 124.36778046 366.21022527 132.37451172 360.96972656 C137.5084918 357.61219361 142.66324569 354.29796246 147.875 351.0625 C154.27903639 347.08664706 160.64471951 343.05333373 167 339 C175.96920319 333.28289565 184.97126987 327.62243649 194 322 C199.92428757 318.30872984 205.84534941 314.61252929 211.7578125 310.90234375 C215.96568726 308.26331622 220.1911675 305.65589523 224.4296875 303.06640625 C226.45328462 301.81536232 228.47672815 300.5640699 230.5 299.3125 C231.45600098 298.73661133 232.41200195 298.16072266 233.39697266 297.56738281 C234.26628418 297.0256543 235.1355957 296.48392578 236.03125 295.92578125 C236.80017578 295.45567627 237.56910156 294.98557129 238.36132812 294.5012207 C238.90208984 294.00581787 239.44285156 293.51041504 240 293 C240 288.78356065 239.87156807 288.34421765 237.41796875 285.2890625 C236.86802246 284.59200195 236.31807617 283.89494141 235.75146484 283.17675781 C235.17348145 282.45842773 234.59549805 281.74009766 234 281 C232.91075703 279.59269416 231.82352381 278.18383055 230.73828125 276.7734375 C229.59720827 275.30662684 228.45525614 273.84049973 227.3125 272.375 C226.40709473 271.21291016 226.40709473 271.21291016 225.48339844 270.02734375 C223.65667274 267.68405581 221.82851292 265.34189349 220 263 C219.44425293 262.2874707 218.88850586 261.57494141 218.31591797 260.84082031 C216.79561383 258.89256841 215.27327276 256.94593131 213.75 255 C213.29665283 254.41911621 212.84330566 253.83823242 212.3762207 253.23974609 C210.66116445 251.05370215 208.96685978 248.96685978 207 247 C202.70538232 247 200.18721028 249.4060729 196.8125 251.8125 Z " fill="#00A0F7" transform="translate(197,293)"/>
<path d="M0 0 C0.66 0.33 1.32 0.66 2 1 C1.76196655 1.53426605 1.52393311 2.0685321 1.27868652 2.61898804 C-1.19120474 8.16459991 -3.6559493 13.71247781 -6.11767578 19.26171875 C-7.03789739 21.33424895 -7.95944341 23.40619161 -8.88232422 25.47753906 C-10.20626329 28.44964719 -11.52547297 31.42381446 -12.84375 34.3984375 C-13.25935181 35.32868744 -13.67495361 36.25893738 -14.10314941 37.21737671 C-14.4835437 38.07811798 -14.86393799 38.93885925 -15.25585938 39.82568359 C-15.59339233 40.58513275 -15.93092529 41.34458191 -16.27868652 42.12704468 C-17.11979655 43.97655398 -17.11979655 43.97655398 -17 46 C-17.66 46 -18.32 46 -19 46 C-19.18175781 46.54527344 -19.36351562 47.09054688 -19.55078125 47.65234375 C-20.07877644 49.23632933 -20.60886887 50.81961678 -21.140625 52.40234375 C-21.70840398 54.11858476 -22.26081989 55.83999347 -22.796875 57.56640625 C-23.04953125 58.36949219 -23.3021875 59.17257813 -23.5625 60 C-23.90474609 61.11375 -23.90474609 61.11375 -24.25390625 62.25 C-25 64 -25 64 -27 65 C-27.70754516 66.98590641 -28.36554125 68.98955066 -29 71 C-30.00377396 73.39048367 -31.02619822 75.76192861 -32.08203125 78.12890625 C-32.69075791 79.50846235 -33.29948177 80.88801968 -33.90820312 82.26757812 C-34.85502179 84.40443269 -35.80287698 86.54082381 -36.7512207 88.67700195 C-37.67659031 90.76400058 -38.59900898 92.85226528 -39.51953125 94.94140625 C-39.9686235 95.95879379 -39.9686235 95.95879379 -40.42678833 96.99673462 C-42.82040599 102.47064533 -44.94336532 108.01291169 -46.96362305 113.63647461 C-48 116 -48 116 -50 117 C-50.73713 118.72373105 -50.73713 118.72373105 -51.31640625 120.84008789 C-53.13138132 126.59287017 -55.51297297 132.04022431 -57.9375 137.55859375 C-58.65776367 139.21158226 -58.65776367 139.21158226 -59.39257812 140.89796448 C-60.92475564 144.41274042 -62.46206932 147.92523811 -64 151.4375 C-66.00200786 156.01865655 -68.00165797 160.60083703 -70 165.18359375 C-70.49904343 166.32721878 -70.99808685 167.47084381 -71.51225281 168.64912415 C-74.94326085 176.52774934 -78.31023682 184.43157775 -81.64453125 192.3515625 C-85.03306155 200.39913765 -88.47393274 208.41919651 -92.01171875 216.40234375 C-92.40295929 217.28568893 -92.79419983 218.16903412 -93.19729614 219.07914734 C-94.76573821 222.61604137 -96.33676521 226.15175073 -97.91381836 229.68481445 C-99.09715134 232.3385277 -100.27369103 234.99516576 -101.44921875 237.65234375 C-101.80843918 238.45212143 -102.16765961 239.25189911 -102.5377655 240.07591248 C-104.45701859 244.37320061 -104.45701859 244.37320061 -105 249 C-105.66 249 -106.32 249 -107 249 C-107.36480469 250.18207031 -107.72960937 251.36414063 -108.10546875 252.58203125 C-110.40078026 259.46258721 -113.39682025 266.0538948 -116.3125 272.6875 C-116.87471669 273.97314654 -117.43656756 275.25895313 -117.99804688 276.54492188 C-118.27542694 277.17995636 -118.55280701 277.81499084 -118.83859253 278.4692688 C-119.39457976 279.74267067 -119.95034727 281.0161685 -120.50588989 282.2897644 C-120.7793222 282.91650055 -121.05275452 283.54323669 -121.33447266 284.18896484 C-121.60729065 284.81430115 -121.88010864 285.43963745 -122.16119385 286.08392334 C-123.02121024 288.04845035 -123.8882208 290.00980445 -124.75537109 291.97119141 C-125.30979509 293.23720627 -125.86400277 294.5033159 -126.41796875 295.76953125 C-127.16276489 297.45912964 -127.16276489 297.45912964 -127.92260742 299.18286133 C-129.17860508 301.96432355 -129.17860508 301.96432355 -129 305 C-129.66 305 -130.32 305 -131 305 C-131.37125 306.19625 -131.7425 307.3925 -132.125 308.625 C-134.54682741 315.89048222 -137.74142533 322.84414421 -140.81152344 329.85253906 C-143.86035675 336.82605234 -146.74316622 343.72798006 -149 351 C-150.10512939 351.02505615 -151.21025879 351.0501123 -152.34887695 351.07592773 C-156.44714044 351.17006509 -160.54523694 351.27027041 -164.64331055 351.37231445 C-166.41735937 351.41563934 -168.19144923 351.45731619 -169.96557617 351.49731445 C-172.51493705 351.5550762 -175.0640918 351.61875362 -177.61328125 351.68359375 C-178.80405022 351.70866249 -178.80405022 351.70866249 -180.01887512 351.73423767 C-183.24683077 351.82117718 -185.91751099 351.97250366 -189 353 C-189 352.34 -189 351.68 -189 351 C-189.66 351.66 -190.32 352.32 -191 353 C-193.15478516 353.22705078 -193.15478516 353.22705078 -195.7890625 353.1953125 C-196.73007812 353.18886719 -197.67109375 353.18242188 -198.640625 353.17578125 C-199.62546875 353.15902344 -200.6103125 353.14226562 -201.625 353.125 C-202.61757813 353.11597656 -203.61015625 353.10695313 -204.6328125 353.09765625 C-207.08878134 353.07404116 -209.54427168 353.04110799 -212 353 C-212 352.67 -212 352.34 -212 352 C-219.92 351.67 -227.84 351.34 -236 351 C-234.00634357 345.01903072 -231.96033676 339.27999591 -229.48828125 333.51171875 C-228.99373444 332.3453614 -228.99373444 332.3453614 -228.48919678 331.15544128 C-227.79106852 329.50935026 -227.0915296 327.86385688 -226.39065552 326.21893311 C-224.5803415 321.96844348 -222.78234073 317.71275583 -220.984375 313.45703125 C-220.63460098 312.62953369 -220.28482697 311.80203613 -219.92445374 310.94946289 C-217.24973593 304.61294371 -214.61832922 298.26054373 -212.0625 291.875 C-211.75159424 291.10244873 -211.44068848 290.32989746 -211.12036133 289.53393555 C-209.64317783 285.85270782 -209.64317783 285.85270782 -208.55249023 282.04614258 C-207.93297111 279.75175912 -206.99869216 277.92616368 -205.875 275.83203125 C-202.05441638 268.34044864 -199.08693209 260.50109117 -196 252.6875 C-195.39101023 251.15674773 -194.78163733 249.62614782 -194.171875 248.09570312 C-190.72077081 239.42008827 -187.32803942 230.72364251 -184 222 C-190.45094572 226.43053823 -196.88732965 230.88079128 -203.25 235.4375 C-204.58804688 236.39462891 -204.58804688 236.39462891 -205.953125 237.37109375 C-208.09662979 238.8421046 -208.09662979 238.8421046 -209 241 C-209.67675781 241.25394531 -210.35351562 241.50789062 -211.05078125 241.76953125 C-215.19077847 243.49681486 -218.56647131 246.06548619 -222.1875 248.6875 C-223.70019491 249.77389146 -225.21321469 250.85983072 -226.7265625 251.9453125 C-227.45649414 252.4702832 -228.18642578 252.99525391 -228.93847656 253.53613281 C-230.72016274 254.80129036 -232.51601636 256.03305407 -234.3359375 257.2421875 C-235.23570312 257.84289062 -236.13546875 258.44359375 -237.0625 259.0625 C-237.83722656 259.56910156 -238.61195313 260.07570313 -239.41015625 260.59765625 C-239.93480469 261.06042969 -240.45945312 261.52320313 -241 262 C-241 262.99 -241 263.98 -241 265 C-242.31484375 265.12568359 -242.31484375 265.12568359 -243.65625 265.25390625 C-247.52751251 266.11770431 -249.41485073 267.47198043 -252.5 269.9375 C-253.56000987 270.76584548 -254.62125624 271.59261054 -255.68359375 272.41796875 C-256.22999512 272.8464209 -256.77639648 273.27487305 -257.33935547 273.71630859 C-260.03049676 275.79658218 -262.79217557 277.77737523 -265.5625 279.75 C-266.13274902 280.15718262 -266.70299805 280.56436523 -267.29052734 280.98388672 C-272.35443891 284.58015716 -277.48901025 288.07033072 -282.625 291.5625 C-295.64398335 299.79721208 -295.64398335 299.79721208 -307 310 C-307 310.66 -307 311.32 -307 312 C-310 313 -310 313 -313 313 C-315.67398476 314.93897879 -315.67398476 314.93897879 -318 317 C-316.43488302 322.20022737 -313.13614483 325.75322992 -309.6875 329.8125 C-308.41092647 331.33809678 -307.13489702 332.86414897 -305.859375 334.390625 C-305.21291016 335.16083984 -304.56644531 335.93105469 -303.90039062 336.72460938 C-301.04533034 340.14305257 -298.23958065 343.60060088 -295.4375 347.0625 C-294.36597836 348.38418994 -293.29436365 349.70580443 -292.22265625 351.02734375 C-291.6930127 351.6807373 -291.16336914 352.33413086 -290.61767578 353.00732422 C-288.9760329 355.02952301 -287.33038484 357.04839838 -285.68359375 359.06640625 C-280.13224258 365.87355644 -274.63566693 372.71468508 -269.23388672 379.64111328 C-264.98286516 385.06863377 -260.58894856 390.37417754 -256.19165039 395.68334961 C-252.56310628 400.07402196 -248.9985035 404.50516943 -245.5 409 C-239.6749004 416.4802777 -233.63314539 423.77741037 -227.58789062 431.08007812 C-219.67844553 440.64340472 -211.8444556 450.26056783 -204.3125 460.125 C-197.60040069 468.90458352 -190.57741637 477.4338617 -183.55859375 485.96875 C-179.08692852 491.40834277 -174.70369452 496.90675013 -170.36889648 502.45532227 C-166.78023471 507.03686989 -163.11992765 511.55612309 -159.4375 516.0625 C-154.30615687 522.34994904 -149.31951964 528.72610379 -144.39550781 535.17773438 C-137.1119822 544.68862227 -129.76319 554.13970915 -122.1328125 563.375 C-119.30857616 566.85098318 -116.58650099 570.40189488 -113.86572266 573.95874023 C-107.55403259 582.20754976 -101.12617768 590.36444966 -94.61645508 598.45776367 C-89.24954667 605.13191708 -83.99290224 611.87935776 -78.81420898 618.70068359 C-76.15414766 622.20040361 -73.47450747 625.67965669 -70.734375 629.1171875 C-69.96395874 630.08483032 -69.96395874 630.08483032 -69.17797852 631.07202148 C-68.2060916 632.28843228 -67.23019677 633.50165486 -66.24975586 634.71118164 C-63 638.78084962 -63 638.78084962 -63 641 C-66.41220732 639.64354227 -69.80779676 638.25285206 -73.1953125 636.8359375 C-74.15824219 636.43632813 -75.12117188 636.03671875 -76.11328125 635.625 C-78.13052803 634.78775101 -80.14614535 633.94656579 -82.16015625 633.1015625 C-83.12050781 632.70453125 -84.08085938 632.3075 -85.0703125 631.8984375 C-85.94445801 631.53411621 -86.81860352 631.16979492 -87.71923828 630.79443359 C-90.06964938 629.8355319 -90.06964938 629.8355319 -93 630 C-93 629.34 -93 628.68 -93 628 C-93.60078369 627.83201904 -94.20156738 627.66403809 -94.82055664 627.4909668 C-102.14383572 625.37767971 -109.08633554 622.62469176 -116.11523438 619.69726562 C-116.96279297 619.34986328 -117.81035156 619.00246094 -118.68359375 618.64453125 C-119.44212646 618.32846924 -120.20065918 618.01240723 -120.98217773 617.68676758 C-123.11808713 616.83889977 -123.11808713 616.83889977 -126 617 C-126 616.34 -126 615.68 -126 615 C-126.82722313 614.73293747 -126.82722313 614.73293747 -127.67115784 614.46047974 C-133.01556396 612.71069992 -138.25066498 610.78342111 -143.46484375 608.6796875 C-144.22422745 608.37555939 -144.98361115 608.07143127 -145.76600647 607.75808716 C-147.35206171 607.12233278 -148.93762462 606.48534882 -150.52270508 605.84716797 C-152.95480349 604.86803382 -155.38839546 603.89268941 -157.82226562 602.91796875 C-159.36987863 602.29709173 -160.91740778 601.67600563 -162.46484375 601.0546875 C-163.19186996 600.76302704 -163.91889618 600.47136658 -164.66795349 600.17086792 C-169.76536447 598.11731776 -169.76536447 598.11731776 -172 597 C-172.33 597.66 -172.66 598.32 -173 599 C-173 598.01 -173 597.02 -173 596 C-173.54164795 595.82114258 -174.0832959 595.64228516 -174.64135742 595.45800781 C-176.23372055 594.93000923 -177.82502808 594.39882123 -179.41552734 593.86523438 C-181.05144437 593.31755915 -182.68955605 592.7763602 -184.33056641 592.24414062 C-196.92601566 588.05194404 -204.13550082 583.05377654 -211.56103516 572.08691406 C-214.08372928 568.42827996 -216.84245018 564.95028416 -219.5625 561.4375 C-220.65469837 560.00470798 -221.74585633 558.57112222 -222.8359375 557.13671875 C-225.75163259 553.31330726 -228.70925607 549.52480641 -231.6875 545.75 C-237.91153214 537.85827927 -244.03406418 529.89015315 -250.12890625 521.8984375 C-255.7224616 514.56651327 -261.34144611 507.25909333 -267.05322266 500.01879883 C-270.40871315 495.76262405 -273.72244557 491.47590079 -277.02026367 487.17480469 C-280.65891133 482.4332564 -284.32805495 477.71578923 -288 473 C-289.1901412 471.46877879 -290.38024585 469.93752916 -291.5703125 468.40625 C-293.74522794 465.60871171 -295.92755803 462.81728209 -298.1171875 460.03125 C-299.03656246 458.85424799 -299.95583997 457.67716986 -300.875 456.5 C-301.67679688 455.4790625 -302.47859375 454.458125 -303.3046875 453.40625 C-305 451 -305 451 -305 449 C-305.66 449 -306.32 449 -307 449 C-308.99282381 447.00717619 -309.7592484 445.4858034 -311 443 C-311.93614225 441.68578731 -312.9077266 440.39637157 -313.90625 439.12890625 C-314.48004395 438.39655762 -315.05383789 437.66420898 -315.64501953 436.90966797 C-316.25716309 436.13510254 -316.86930664 435.36053711 -317.5 434.5625 C-318.77888606 432.93117788 -320.05753073 431.2996665 -321.3359375 429.66796875 C-321.96338867 428.8692334 -322.59083984 428.07049805 -323.23730469 427.24755859 C-329.27440085 419.54984291 -335.19335903 411.7636364 -341.0625 403.9375 C-341.81865601 402.93178955 -341.81865601 402.93178955 -342.59008789 401.90576172 C-344.97425774 398.72919121 -347.33885692 395.54208479 -349.65625 392.31640625 C-350.06480225 391.75381104 -350.47335449 391.19121582 -350.89428711 390.61157227 C-351.9898504 389.10022153 -353.07537008 387.58160465 -354.16015625 386.0625 C-354.76730469 385.381875 -355.37445312 384.70125 -356 384 C-356.99 384 -357.98 384 -359 384 C-360 381 -360 381 -360 379 C-360.82577492 377.68221156 -361.71498129 376.40384837 -362.6328125 375.1484375 C-363.19226563 374.37886719 -363.75171875 373.60929687 -364.328125 372.81640625 C-364.92109375 372.01074219 -365.5140625 371.20507812 -366.125 370.375 C-366.69476562 369.59253906 -367.26453125 368.81007813 -367.8515625 368.00390625 C-368.99440133 366.43769758 -370.14184812 364.87484056 -371.29394531 363.31542969 C-372.43912979 361.76120393 -373.57380345 360.19918288 -374.69824219 358.62988281 C-375.22836914 357.89866211 -375.75849609 357.16744141 -376.3046875 356.4140625 C-377.01214111 355.42720459 -377.01214111 355.42720459 -377.73388672 354.42041016 C-378.1517041 353.9516748 -378.56952148 353.48293945 -379 353 C-379.66 353 -380.32 353 -381 353 C-381.350625 352.03449219 -381.70125 351.06898438 -382.0625 350.07421875 C-384.21613202 345.05286898 -387.59724302 341.04154121 -391 336.8125 C-392.25011431 335.23576771 -393.50011817 333.65894784 -394.75 332.08203125 C-395.57757813 331.04912964 -395.57757813 331.04912964 -396.421875 329.99536133 C-397.98292608 328.02158805 -399.49891461 326.01962674 -401 324 C-397.84687719 321.2511237 -394.70781349 318.76012344 -391.1875 316.5 C-385.04171103 312.47842668 -379.3012338 307.92627538 -373.48828125 303.4453125 C-369.23380539 300.16810421 -364.93361793 296.95546272 -360.625 293.75 C-355.0518526 289.59203953 -349.59482504 285.33918464 -344.26171875 280.875 C-342.93819125 279.77777513 -341.594262 278.70298918 -340.20703125 277.6875 C-331.58477758 271.30392916 -327.4543421 259.19474121 -322.8125 249.8125 C-322.15040016 248.48209198 -321.4881256 247.15177089 -320.82568359 245.8215332 C-316.43116761 236.97849335 -312.11671939 228.09832727 -307.94067383 219.1496582 C-307.13170682 217.43104162 -306.30219668 215.72198565 -305.45532227 214.02172852 C-304.34029541 211.70656539 -303.34423864 209.41224182 -302.37084961 207.03881836 C-296.54704637 193.68161285 -287.44913289 187.6552005 -275.3125 180.1875 C-273.41956818 178.98161549 -271.52921025 177.77168176 -269.64135742 176.55786133 C-265.87089295 174.13911046 -262.08939518 171.7394776 -258.296875 169.35546875 C-251.65900734 165.17028544 -245.14520085 160.80868795 -238.64123535 156.41952515 C-235.65894678 154.41034732 -232.66603433 152.41721035 -229.671875 150.42578125 C-229.10942078 150.05161575 -228.54696655 149.67745026 -227.96746826 149.29194641 C-221.24085778 144.8232333 -214.47380148 140.41676169 -207.70239258 136.01635742 C-202.03364608 132.33200175 -196.39307296 128.61009711 -190.77758789 124.84521484 C-184.05932711 120.35161095 -177.27650781 115.95699026 -170.50170898 111.54931641 C-164.2244969 107.46170837 -157.97510162 103.33620557 -151.75512695 99.16210938 C-148.59991943 97.04927551 -145.42105976 94.99076811 -142.1875 93 C-139.04416385 91.19292631 -139.04416385 91.19292631 -137 89 C-135.18274789 87.91022381 -133.34633047 86.85225053 -131.5 85.8125 C-127.66122052 83.60270614 -123.96397753 81.34481825 -120.375 78.75 C-114.94474343 74.84727902 -109.24138862 71.42753955 -103.50732422 67.99511719 C-95.29130778 63.11476804 -95.29130778 63.11476804 -88 57 C-86.34961083 56.07452135 -84.67981575 55.1834272 -83 54.3125 C-76.62921672 50.89628288 -70.14219699 47.14219699 -65 42 C-63.515 41.505 -63.515 41.505 -62 41 C-60.5087752 40.10737172 -59.04155423 39.1742987 -57.58984375 38.21875 C-56.69491211 37.63222656 -55.79998047 37.04570312 -54.87792969 36.44140625 C-53.42241699 35.48041016 -53.42241699 35.48041016 -51.9375 34.5 C-50.92977539 33.83871094 -49.92205078 33.17742187 -48.88378906 32.49609375 C-46.71904652 31.0755022 -44.55517792 29.65357822 -42.39208984 28.23046875 C-37.24188745 24.84233951 -32.08238081 21.46843077 -26.92288208 18.09448242 C-25.29688347 17.03067349 -23.67174421 15.96555142 -22.04663086 14.90039062 C-16.12394454 11.02266939 -10.17476575 7.19636654 -4.17089844 3.4453125 C-1.91496207 2.04611348 -1.91496207 2.04611348 0 0 Z " fill="#F6630E" transform="translate(881,175)"/>
<path d="M0 0 C19.4089724 0.24266637 38.81793442 0.48614889 58.2268858 0.73049068 C67.24785108 0.84403963 76.26881907 0.95736255 85.28979492 1.07006836 C94.88703002 1.18998795 104.48425469 1.31072243 114.08147454 1.43185592 C116.70741343 1.46494702 119.33335415 1.49788923 121.95929527 1.53080177 C140.33367858 1.76138715 158.70771945 2.00360868 177.08129883 2.29174805 C213.90778587 2.88866045 213.90778587 2.88866045 250.73828125 3.02734375 C251.59024771 3.02475744 252.44221416 3.02217113 253.31999779 3.01950645 C260.691523 2.99439069 268.06292009 2.95229902 275.43432617 2.90405273 C279.62466472 2.87727666 283.81495371 2.86027914 288.00536156 2.84918404 C290.27659493 2.84018714 292.5475297 2.81988612 294.81867981 2.79905701 C311.10116398 2.71443606 311.10116398 2.71443606 315.91796875 6.51220703 C316.33691406 7.08825684 316.75585938 7.66430664 317.1875 8.2578125 C317.65800781 8.88300781 318.12851562 9.50820313 318.61328125 10.15234375 C319.07089844 10.80332031 319.52851562 11.45429688 320 12.125 C320.48855469 12.78371094 320.97710938 13.44242187 321.48046875 14.12109375 C322.67239742 15.73370312 323.83889285 17.36505868 325 19 C324.67 19.66 324.34 20.32 324 21 C319.76587058 19.48781092 318.30739318 16.72160191 316 13 C315.4225 12.278125 314.845 11.55625 314.25 10.8125 C313 9 313 9 313 6 C311.87299478 6.0031605 311.87299478 6.0031605 310.72322178 6.00638485 C291.45553295 6.05269395 272.19931287 5.89950494 252.93359375 5.59765625 C250.11274973 5.55497133 247.29189463 5.51304303 244.47103882 5.47114563 C238.52654291 5.38259291 232.58206754 5.29277038 226.63760376 5.2020874 C211.83427039 4.97652504 197.03079163 4.76075063 182.22730136 4.54576778 C180.66342861 4.52305565 179.09955611 4.50032575 177.53568387 4.47757816 C148.96183737 4.06202258 120.3877589 3.68109971 91.8125 3.375 C90.40204155 3.35985226 90.40204155 3.35985226 88.96308899 3.3443985 C60.30862452 3.03877667 31.6562594 2.84481739 3 3 C3.96679688 3.90492188 3.96679688 3.90492188 4.953125 4.828125 C7.25643851 7.27209887 7.63545379 8.71908413 8 12 C2.00704225 6.16901408 2.00704225 6.16901408 0 3 C0 2.01 0 1.02 0 0 Z " fill="#057EC7" transform="translate(197,293)"/>
<path d="M0 0 C13.27409208 -0.0232025 26.54817931 -0.04095538 39.82228756 -0.05181217 C45.98643143 -0.0570237 52.1505614 -0.0640899 58.31469727 -0.07543945 C64.26691893 -0.08632985 70.21912725 -0.09228987 76.17135811 -0.09487724 C78.43865735 -0.09672041 80.7059559 -0.10031962 82.97324944 -0.10573006 C86.15657996 -0.11302215 89.33985578 -0.1139875 92.52319336 -0.11352539 C93.45396194 -0.11712067 94.38473053 -0.12071594 95.34370422 -0.12442017 C100.97342687 -0.11561617 106.41473691 0.28404179 112 1 C112 1.33 112 1.66 112 2 C105.93108133 2.14286067 99.86215221 2.28526566 93.79321289 2.42724609 C91.72810577 2.47562294 89.66300158 2.52412489 87.59790039 2.57275391 C84.63168077 2.64258084 81.66545095 2.71195969 78.69921875 2.78125 C77.7741301 2.80312378 76.84904144 2.82499756 75.8959198 2.84753418 C75.03525406 2.86755493 74.17458832 2.88757568 73.2878418 2.90820312 C72.15199898 2.93485046 72.15199898 2.93485046 70.99320984 2.96203613 C67.48708672 3.02881585 64.42601512 2.74076003 61 2 C60.67 2.66 60.34 3.32 60 4 C60 3.01 60 2.02 60 1 C46.635 1.495 46.635 1.495 33 2 C33 2.33 33 2.66 33 3 C24.42 3 15.84 3 7 3 C7 2.67 7 2.34 7 2 C4.03 1.505 4.03 1.505 1 1 C0.67 1.66 0.34 2.32 0 3 C0 2.01 0 1.02 0 0 Z " fill="#038DDB" transform="translate(337,388)"/>
<path d="M0 0 C0.69424576 0.01030746 1.38849152 0.02061493 2.10377502 0.03123474 C11.25667737 0.16706173 20.40958633 0.30243888 29.5625 0.4375 C30.68281364 0.45403185 30.68281364 0.45403185 31.82575989 0.47089767 C57.13370835 0.84419974 82.44179241 1.20721236 107.75 1.5625 C108.54079578 1.5736018 109.33159157 1.5847036 110.14635086 1.59614182 C119.76422874 1.73113157 129.38211165 1.86575878 139 2 C139 2.33 139 2.66 139 3 C94.12 3 49.24 3 3 3 C4.32 4.32 5.64 5.64 7 7 C7.75 9.75 7.75 9.75 8 12 C2.00704225 6.16901408 2.00704225 6.16901408 0 3 C0 2.01 0 1.02 0 0 Z " fill="#057BBF" transform="translate(197,293)"/>
<path d="M0 0 C1.66627552 -0.05513412 3.33311412 -0.09329293 5 -0.125 C5.928125 -0.14820313 6.85625 -0.17140625 7.8125 -0.1953125 C17.16830084 0.37795961 17.16830084 0.37795961 20.66796875 3.47705078 C22.22246406 5.29878741 23.62292964 7.16606892 25 9.125 C25.73283203 10.11306641 25.73283203 10.11306641 26.48046875 11.12109375 C27.67239742 12.73370312 28.83889285 14.36505868 30 16 C29.67 16.66 29.34 17.32 29 18 C24.76587058 16.48781092 23.30739318 13.72160191 21 10 C20.13375 8.9171875 20.13375 8.9171875 19.25 7.8125 C18 6 18 6 18 3 C8.1 3 -1.8 3 -12 3 C-12 2.67 -12 2.34 -12 2 C-8.04 2 -4.08 2 0 2 C0 1.34 0 0.68 0 0 Z " fill="#087DC5" transform="translate(492,296)"/>
<path d="M0 0 C11.68031211 -0.22607056 23.33677472 0.44263184 35 1 C35 1.33 35 1.66 35 2 C19.16 2.495 19.16 2.495 3 3 C4.32 4.32 5.64 5.64 7 7 C7.75 9.75 7.75 9.75 8 12 C2.00704225 6.16901408 2.00704225 6.16901408 0 3 C0 2.01 0 1.02 0 0 Z " fill="#056AA9" transform="translate(197,293)"/>
<path d="M0 0 C1.37438347 4.12315042 0.07561958 5.70600781 -1.6875 9.625 C-1.96352051 10.24584473 -2.23954102 10.86668945 -2.52392578 11.50634766 C-3.34124929 13.34116524 -4.1704663 15.17067031 -5 17 C-5.79264502 18.79123405 -6.58449955 20.58281848 -7.375 22.375 C-7.91125 23.57125 -8.4475 24.7675 -9 26 C-10.91527165 20.31933035 -8.26618492 14.81273935 -5.90625 9.5703125 C-4.97232181 7.69578519 -3.99086708 5.84506285 -3 4 C-2.34 4 -1.68 4 -1 4 C-0.67 2.68 -0.34 1.36 0 0 Z " fill="#0492DE" transform="translate(331,403)"/>
<path d="M0 0 C0.66 0.33 1.32 0.66 2 1 C0.35 4.63 -1.3 8.26 -3 12 C-3.66 10.68 -4.32 9.36 -5 8 C-6.98 8.33 -8.96 8.66 -11 9 C-7.97434902 5.74160664 -4.73073113 3.40424895 -1 1 C-0.67 0.67 -0.34 0.34 0 0 Z " fill="#BF520E" transform="translate(881,175)"/>
<path d="M0 0 C3.25516428 3.16474305 6.32008793 6.32752791 9 10 C9 10.66 9 11.32 9 12 C6.5 11 6.5 11 4 10 C3.0925 9.690625 2.185 9.38125 1.25 9.0625 C0.5075 8.711875 -0.235 8.36125 -1 8 C-1.33 7.01 -1.66 6.02 -2 5 C-1.01 5 -0.02 5 1 5 C0.67 3.35 0.34 1.7 0 0 Z " fill="#D75B0C" transform="translate(809,804)"/>
<path d="M0 0 C1.65 0 3.3 0 5 0 C1.25 3.875 1.25 3.875 -1 5 C-1.33 5.99 -1.66 6.98 -2 8 C-2.721875 8.12375 -3.44375 8.2475 -4.1875 8.375 C-6.95721894 8.9904931 -9.3970354 9.88444374 -12 11 C-9.93770937 6.98396035 -8.12168154 4.91004754 -4 3 C-2.68 3 -1.36 3 0 3 C0 2.01 0 1.02 0 0 Z " fill="#048FDA" transform="translate(176,840)"/>
<path d="M0 0 C4.84659077 0.59104765 8.60748167 1.97944157 13 4 C13 4.66 13 5.32 13 6 C14.32 6.66 15.64 7.32 17 8 C12.25 7.125 12.25 7.125 10 6 C9.67 6.66 9.34 7.32 9 8 C9 7.01 9 6.02 9 5 C6.03 4.01 3.06 3.02 0 2 C0 1.34 0 0.68 0 0 Z " fill="#D15B12" transform="translate(699,766)"/>
<path d="M0 0 C0.66 0.33 1.32 0.66 2 1 C-1.45768263 6.50085874 -6.30583657 8.39930036 -12 11 C-13.3360305 11.66124483 -14.67038052 12.32595679 -16 13 C-11.3126338 7.82773385 -5.68271819 4.01074507 0 0 Z " fill="#0291E1" transform="translate(449,414)"/>
<path d="M0 0 C5.55216953 2.52371342 8.514344 7.20847864 12 12 C11.67 12.66 11.34 13.32 11 14 C6.76587058 12.48781092 5.30739318 9.72160191 3 6 C2.4225 5.2575 1.845 4.515 1.25 3.75 C0 2 0 2 0 0 Z " fill="#0598E3" transform="translate(510,300)"/>
<path d="M0 0 C1.36420006 4.09260018 -0.2335485 6.47012659 -1.9375 10.1875 C-2.22818359 10.84169922 -2.51886719 11.49589844 -2.81835938 12.16992188 C-3.53695343 13.78381344 -4.2673588 15.39243655 -5 17 C-6.1171875 15.296875 -6.1171875 15.296875 -7 13 C-6.3203125 10.640625 -6.3203125 10.640625 -5.125 8.25 C-4.73570312 7.45078125 -4.34640625 6.6515625 -3.9453125 5.828125 C-3.63335937 5.22484375 -3.32140625 4.6215625 -3 4 C-2.34 4 -1.68 4 -1 4 C-0.67 2.68 -0.34 1.36 0 0 Z " fill="#0390DB" transform="translate(322,623)"/>
<path d="M0 0 C0.87840996 3.09720845 0.99435406 4.90645403 0 8 C-0.66 8 -1.32 8 -2 8 C-2.0825 9.093125 -2.165 10.18625 -2.25 11.3125 C-3 15 -3 15 -5.0625 16.9375 C-5.701875 17.288125 -6.34125 17.63875 -7 18 C-6.20840993 14.03202953 -4.5519573 10.43590716 -2.9375 6.75 C-2.51500977 5.77546875 -2.51500977 5.77546875 -2.08398438 4.78125 C-1.3920615 3.18630914 -0.696401 1.59299066 0 0 Z " fill="#0589D0" transform="translate(148,828)"/>
<path d="M0 0 C1.31223496 3.93670488 0.24296256 6.12488144 -1 10 C-1.66 10 -2.32 10 -3 10 C-3.10957031 10.63808594 -3.21914062 11.27617188 -3.33203125 11.93359375 C-3.49058594 12.75988281 -3.64914063 13.58617187 -3.8125 14.4375 C-3.96332031 15.26121094 -4.11414063 16.08492187 -4.26953125 16.93359375 C-4.51058594 17.61550781 -4.75164062 18.29742188 -5 19 C-5.99 19.33 -6.98 19.66 -8 20 C-5.83836487 13.06001352 -3.1063786 6.56882431 0 0 Z " fill="#0382CB" transform="translate(234,634)"/>
<path d="M0 0 C1.65 0.33 3.3 0.66 5 1 C1.99482576 4.86379545 -0.45081065 7.90983192 -5 10 C-5.66 9.67 -6.32 9.34 -7 9 C-4.78468629 6.17356527 -2.53653401 3.53653401 0 1 C0 0.67 0 0.34 0 0 Z " fill="#019BEA" transform="translate(377,464)"/>
<path d="M0 0 C1.485 0.99 1.485 0.99 3 2 C3 2.66 3 3.32 3 4 C3.99 4.33 4.98 4.66 6 5 C5.42365861 9.75481646 3.44931479 12.97048212 1 17 C-0.24546405 14.50907189 0.2232422 13.58919267 1 11 C1.66 11 2.32 11 3 11 C3.33 9.35 3.66 7.7 4 6 C3.01 5.67 2.02 5.34 1 5 C0.67 3.35 0.34 1.7 0 0 Z " fill="#2E81B9" transform="translate(561,365)"/>
<path d="M0 0 C0.66 0.33 1.32 0.66 2 1 C-1.95103992 6.04855101 -4.6178404 8.63239437 -11 10 C-7.65996398 5.67760044 -4.67248931 2.82522609 0 0 Z " fill="#0591DE" transform="translate(214,816)"/>
<path d="M0 0 C0.66 0.33 1.32 0.66 2 1 C-1.96 3.64 -5.92 6.28 -10 9 C-10.66 8.67 -11.32 8.34 -12 8 C-8.2646504 3.81188075 -5.22578394 1.77479455 0 0 Z " fill="#038DDA" transform="translate(256,791)"/>
<path d="M0 0 C0.66 0.33 1.32 0.66 2 1 C1.01 1.61875 0.02 2.2375 -1 2.875 C-1.99 3.57625 -2.98 4.2775 -4 5 C-4 5.66 -4 6.32 -4 7 C-4.7425 7.103125 -5.485 7.20625 -6.25 7.3125 C-9.17014018 8.04253504 -10.73187554 9.06789398 -13 11 C-13.66 10.67 -14.32 10.34 -15 10 C-12.5192625 5.76815367 -9.45358621 4.76607729 -5 3 C-4.071875 2.4225 -3.14375 1.845 -2.1875 1.25 C-1.1046875 0.63125 -1.1046875 0.63125 0 0 Z " fill="#0684CF" transform="translate(306,759)"/>
<path d="M0 0 C3.35950447 0.59740142 3.87163884 0.83766089 6.125 3.6875 C7.87029593 6.77085614 9.02955777 9.60345221 10 13 C5.75595588 9.11973109 2.89082453 4.95745654 0 0 Z " fill="#038AD3" transform="translate(208,309)"/>
<path d="M0 0 C0.66 0.33 1.32 0.66 2 1 C-1.02272532 4.25524265 -4.25718301 6.61820737 -8 9 C-8.66 8.67 -9.32 8.34 -10 8 C-10 7.34 -10 6.68 -10 6 C-8.68 6 -7.36 6 -6 6 C-5.67 5.01 -5.34 4.02 -5 3 C-2.5625 1.25 -2.5625 1.25 0 0 Z " fill="#0592DF" transform="translate(455,662)"/>
<path d="M0 0 C0.66 0.33 1.32 0.66 2 1 C-1.75 4 -1.75 4 -4 4 C-4.20625 4.639375 -4.4125 5.27875 -4.625 5.9375 C-6 8 -6 8 -9.125 8.75 C-10.548125 8.87375 -10.548125 8.87375 -12 9 C-8.63378119 5.21300384 -4.58358196 2.1727369 0 0 Z " fill="#D05B13" transform="translate(782,240)"/>
<path d="M0 0 C-1.78524649 1.19713017 -3.5784028 2.38247279 -5.375 3.5625 C-6.87160156 4.55443359 -6.87160156 4.55443359 -8.3984375 5.56640625 C-9.25695312 6.03949219 -10.11546875 6.51257813 -11 7 C-11.66 6.67 -12.32 6.34 -13 6 C-9.70862872 2.32140857 -5.25202969 -2.62601484 0 0 Z " fill="#058CD7" transform="translate(197,831)"/>
<path d="M0 0 C4.4008703 3.82180842 5.80805531 6.47371099 7 12 C0.75324675 5.92207792 0.75324675 5.92207792 -1 3 C-0.67 2.01 -0.34 1.02 0 0 Z " fill="#048FDB" transform="translate(249,361)"/>
<path d="M0 0 C0.66 0.33 1.32 0.66 2 1 C-1.08993314 4.35478456 -3.53194683 6.79241806 -8 8 C-8.66 7.67 -9.32 7.34 -10 7 C-6.7 4.69 -3.4 2.38 0 0 Z " fill="#C85D1A" transform="translate(604,357)"/>
<path d="M0 0 C1 3 1 3 -0.21484375 5.69921875 C-0.78332031 6.68535156 -1.35179687 7.67148437 -1.9375 8.6875 C-2.50339844 9.68136719 -3.06929687 10.67523438 -3.65234375 11.69921875 C-4.31943359 12.83810547 -4.31943359 12.83810547 -5 14 C-5.33 14 -5.66 14 -6 14 C-6 12.35 -6 10.7 -6 9 C-5.34 9 -4.68 9 -4 9 C-4 7.68 -4 6.36 -4 5 C-2.5625 3.375 -2.5625 3.375 -1 2 C-0.67 1.34 -0.34 0.68 0 0 Z " fill="#2386C2" transform="translate(552,398)"/>
<path d="M0 0 C0.66 0.33 1.32 0.66 2 1 C-0.25740623 3.33524782 -2.2805761 5.18705073 -5 7 C-6.32 6.67 -7.64 6.34 -9 6 C-6.03 4.02 -3.06 2.04 0 0 Z " fill="#0294E0" transform="translate(326,655)"/>
<path d="M0 0 C0.66 0.33 1.32 0.66 2 1 C2 1.66 2 2.32 2 3 C2.66 3 3.32 3 4 3 C4.33 3.99 4.66 4.98 5 6 C3.68 6.99 2.36 7.98 1 9 C0.34 8.67 -0.32 8.34 -1 8 C-0.67 5.36 -0.34 2.72 0 0 Z " fill="#1A89CA" transform="translate(531,607)"/>
<path d="M0 0 C0.99 0.33 1.98 0.66 3 1 C0.4837822 3.60608273 -2.05134359 5.89381685 -5 8 C-5.66 7.67 -6.32 7.34 -7 7 C-5.65117186 2.95351557 -3.65173931 2.04497401 0 0 Z " fill="#1B8FD3" transform="translate(502,462)"/>
<path d="M0 0 C0.66 0 1.32 0 2 0 C2.92718689 3.08136961 3.14268368 4.61671247 2.00390625 7.67578125 C1.52824219 8.54589844 1.05257812 9.41601562 0.5625 10.3125 C0.08941406 11.19550781 -0.38367188 12.07851563 -0.87109375 12.98828125 C-1.24363281 13.65214844 -1.61617187 14.31601562 -2 15 C-2.33 14.01 -2.66 13.02 -3 12 C-2.71125 11.443125 -2.4225 10.88625 -2.125 10.3125 C-0.4852688 6.94194143 -0.37218134 3.72181341 0 0 Z " fill="#2387C6" transform="translate(536,424)"/>
<path d="M0 0 C1.85546875 0.25390625 1.85546875 0.25390625 4 1 C5.30078125 2.77734375 5.30078125 2.77734375 6.3125 4.9375 C6.65925781 5.64777344 7.00601563 6.35804688 7.36328125 7.08984375 C7.57339844 7.72019531 7.78351563 8.35054688 8 9 C7.67 9.66 7.34 10.32 7 11 C5.82750647 9.54634731 4.66216184 8.08692581 3.5 6.625 C2.52546875 5.40683594 2.52546875 5.40683594 1.53125 4.1640625 C0 2 0 2 0 0 Z " fill="#038FDB" transform="translate(234,343)"/>
<path d="M0 0 C0.66 0.33 1.32 0.66 2 1 C1.33501617 5.38889325 -0.18757677 8.9811485 -2 13 C-3.05899758 9.82300727 -2.96817951 9.02723312 -2.125 5.9375 C-1.94195312 5.24527344 -1.75890625 4.55304688 -1.5703125 3.83984375 C-1 2 -1 2 0 0 Z " fill="#038FDA" transform="translate(335,390)"/>
<path d="M0 0 C0.66 0.33 1.32 0.66 2 1 C-4 7 -4 7 -6.5625 7.0625 C-7.7690625 7.0315625 -7.7690625 7.0315625 -9 7 C-3.51752022 1.21293801 -3.51752022 1.21293801 0 0 Z " fill="#D35D14" transform="translate(748,262)"/>
<path d="M0 0 C-0.93972656 0.61488281 -0.93972656 0.61488281 -1.8984375 1.2421875 C-2.71570313 1.78101563 -3.53296875 2.31984375 -4.375 2.875 C-5.59316406 3.67550781 -5.59316406 3.67550781 -6.8359375 4.4921875 C-9.07594096 5.95865055 -9.07594096 5.95865055 -11 8 C-11 5 -11 5 -8.75 2.375 C-3.8 -1.9 -3.8 -1.9 0 0 Z " fill="#0687D2" transform="translate(395,704)"/>
<path d="M0 0 C0.66 0.33 1.32 0.66 2 1 C-1.3 3.31 -4.6 5.62 -8 8 C-8.66 7.67 -9.32 7.34 -10 7 C-7.5447806 2.81168455 -4.50419967 1.55599625 0 0 Z " fill="#028FDE" transform="translate(358,568)"/>
<path d="M0 0 C-4.455 2.97 -4.455 2.97 -9 6 C-9.66 5.67 -10.32 5.34 -11 5 C-4.36842105 -2.18421053 -4.36842105 -2.18421053 0 0 Z " fill="#038BD8" transform="translate(319,753)"/>
<path d="M0 0 C0.33 0.66 0.66 1.32 1 2 C0.22265625 3.9453125 0.22265625 3.9453125 -0.9375 6.125 C-1.31777344 6.84945313 -1.69804688 7.57390625 -2.08984375 8.3203125 C-2.39019531 8.87460937 -2.69054687 9.42890625 -3 10 C-3.82638376 7.10765685 -4 5.11257569 -4 2 C-2.68 1.34 -1.36 0.68 0 0 Z " fill="#218AC8" transform="translate(560,383)"/>
<path d="M0 0 C0.66 0 1.32 0 2 0 C1.625 2.9375 1.625 2.9375 1 6 C0.01 6.495 0.01 6.495 -1 7 C-1 6.01 -1 5.02 -1 4 C-2.65 4.66 -4.3 5.32 -6 6 C-4 4 -2 2 0 0 Z " fill="#D25C16" transform="translate(698,393)"/>
<path d="M0 0 C-4.455 2.97 -4.455 2.97 -9 6 C-9.66 5.67 -10.32 5.34 -11 5 C-10.67 4.34 -10.34 3.68 -10 3 C-9.01 3 -8.02 3 -7 3 C-6.67 2.01 -6.34 1.02 -6 0 C-3.42525708 -0.99667468 -2.51072708 -1.25536354 0 0 Z " fill="#068CD6" transform="translate(406,697)"/>
<path d="M0 0 C0.66 0.33 1.32 0.66 2 1 C0.35 2.65 -1.3 4.3 -3 6 C-3.99 5.67 -4.98 5.34 -6 5 C-2.25 1.125 -2.25 1.125 0 0 Z " fill="#0398E5" transform="translate(338,737)"/>
<path d="M0 0 C2.5 2.3125 2.5 2.3125 5 5 C5 5.99 5 6.98 5 8 C2.5 6.25 2.5 6.25 0 4 C0 2.68 0 1.36 0 0 Z " fill="#138DD4" transform="translate(472,533)"/>
<path d="M0 0 C0.66 0.33 1.32 0.66 2 1 C-0.25 3.5625 -0.25 3.5625 -3 6 C-4.32 5.67 -5.64 5.34 -7 5 C-4.69 3.35 -2.38 1.7 0 0 Z " fill="#D05F17" transform="translate(622,345)"/>
<path d="M0 0 C2.5 2.3125 2.5 2.3125 5 5 C5 5.99 5 6.98 5 8 C3.0625 7.375 3.0625 7.375 1 6 C0.25 2.875 0.25 2.875 0 0 Z " fill="#0A8AD2" transform="translate(516,306)"/>
<path d="M0 0 C-2.31 1.65 -4.62 3.3 -7 5 C-7.66 4.67 -8.32 4.34 -9 4 C-6.56225426 0.2214941 -6.56225426 0.2214941 -3.9375 -0.8125 C-2 -1 -2 -1 0 0 Z " fill="#0686D0" transform="translate(423,686)"/>
<path d="M0 0 C0.66 0.33 1.32 0.66 2 1 C0.25 3.0625 0.25 3.0625 -2 5 C-4.25 4.75 -4.25 4.75 -6 4 C-4.02 2.68 -2.04 1.36 0 0 Z " fill="#0492E0" transform="translate(337,648)"/>
<path d="M0 0 C0.66 1.32 1.32 2.64 2 4 C0.68 5.32 -0.64 6.64 -2 8 C-2.33 7.34 -2.66 6.68 -3 6 C-2.06553465 3.96855359 -1.06775224 1.96466413 0 0 Z " fill="#D8621B" transform="translate(554,433)"/>
<path d="M0 0 C1.65 0 3.3 0 5 0 C5 0.66 5 1.32 5 2 C4.01 2 3.02 2 2 2 C1.67 2.99 1.34 3.98 1 5 C-0.32 4.67 -1.64 4.34 -3 4 C-2.505 3.525625 -2.01 3.05125 -1.5 2.5625 C0.11542197 1.24076302 0.11542197 1.24076302 0 0 Z " fill="#CE5B15" transform="translate(816,216)"/>
<path d="M0 0 C0.33 0.66 0.66 1.32 1 2 C-3.43076923 5.07692308 -3.43076923 5.07692308 -6.3125 4.6875 C-6.869375 4.460625 -7.42625 4.23375 -8 4 C-5.37801226 1.84622436 -3.35595828 0.59927826 0 0 Z " fill="#D95F11" transform="translate(835,207)"/>
<path d="M0 0 C1 3 1 3 -0.4375 6.1875 C-1.2109375 7.5796875 -1.2109375 7.5796875 -2 9 C-2.33 9 -2.66 9 -3 9 C-3.36923077 3.46153846 -3.36923077 3.46153846 -1.5 1.125 C-1.005 0.75375 -0.51 0.3825 0 0 Z " fill="#CA5912" transform="translate(872,196)"/>
<path d="M0 0 C4.875 4.625 4.875 4.625 6 8 C3.525 7.01 3.525 7.01 1 6 C1 5.01 1 4.02 1 3 C0.67 2.01 0.34 1.02 0 0 Z " fill="#983F0C" transform="translate(812,808)"/>
<path d="M0 0 C1.65 1.65 3.3 3.3 5 5 C4.67 5.66 4.34 6.32 4 7 C2.35 5.68 0.7 4.36 -1 3 C-0.67 2.01 -0.34 1.02 0 0 Z " fill="#0B87CD" transform="translate(526,319)"/>
<path d="M0 0 C0.66 0.33 1.32 0.66 2 1 C-2.39453125 5.00390625 -2.39453125 5.00390625 -4 6 C-4.99 5.67 -5.98 5.34 -7 5 C-4.69 3.35 -2.38 1.7 0 0 Z " fill="#C95A15" transform="translate(661,319)"/>
<path d="M0 0 C0.99 0.33 1.98 0.66 3 1 C4.1875 4.5625 4.1875 4.5625 5 8 C2.5 5.6875 2.5 5.6875 0 3 C0 2.01 0 1.02 0 0 Z " fill="#0484CC" transform="translate(200,297)"/>
<path d="M0 0 C1 3 1 3 -0.4375 6.1875 C-1.2109375 7.5796875 -1.2109375 7.5796875 -2 9 C-2.66 7.68 -3.32 6.36 -4 5 C-3.34 4.01 -2.68 3.02 -2 2 C-1.34 2 -0.68 2 0 2 C0 1.34 0 0.68 0 0 Z " fill="#C75711" transform="translate(876,187)"/>
<path d="M0 0 C4.95 0 9.9 0 15 0 C15 0.33 15 0.66 15 1 C10.05 1 5.1 1 0 1 C0 0.67 0 0.34 0 0 Z " fill="#039EF2" transform="translate(432,391)"/>
<path d="M0 0 C1.65 1.65 3.3 3.3 5 5 C4.01 5.33 3.02 5.66 2 6 C1.34 4.02 0.68 2.04 0 0 Z " fill="#C26331" transform="translate(538,578)"/>
<path d="M0 0 C3.3 0 6.6 0 10 0 C10 0.33 10 0.66 10 1 C6.7 1 3.4 1 0 1 C0 0.67 0 0.34 0 0 Z " fill="#02A1F3" transform="translate(375,390)"/>
<path d="M0 0 C2.97 0 5.94 0 9 0 C9 0.33 9 0.66 9 1 C6.03 1 3.06 1 0 1 C0 0.67 0 0.34 0 0 Z " fill="#D15610" transform="translate(721,527)"/>
<path d="M0 0 C1.98 0.66 3.96 1.32 6 2 C2.25 3.125 2.25 3.125 0 2 C0 1.34 0 0.68 0 0 Z " fill="#DB580D" transform="translate(730,781)"/>
<path d="M0 0 C2.64 0 5.28 0 8 0 C8 0.33 8 0.66 8 1 C5.36 1 2.72 1 0 1 C0 0.67 0 0.34 0 0 Z " fill="#039FF2" transform="translate(419,391)"/>
<path d="M0 0 C2.31 0 4.62 0 7 0 C7 0.33 7 0.66 7 1 C4.69 1 2.38 1 0 1 C0 0.67 0 0.34 0 0 Z " fill="#E05B10" transform="translate(699,527)"/>
<path d="M0 0 C2.31 0 4.62 0 7 0 C7 0.33 7 0.66 7 1 C4.69 1 2.38 1 0 1 C0 0.67 0 0.34 0 0 Z " fill="#E46112" transform="translate(656,527)"/>
<path d="M0 0 C0.66 0.66 1.32 1.32 2 2 C1.01 2.495 1.01 2.495 0 3 C-0.66 2.34 -1.32 1.68 -2 1 C-1.34 0.67 -0.68 0.34 0 0 Z " fill="#0990DA" transform="translate(213,821)"/>
<path d="M0 0 C1.485 0.99 1.485 0.99 3 2 C2.67 2.66 2.34 3.32 2 4 C1.34 2.68 0.68 1.36 0 0 Z " fill="#D05E1D" transform="translate(577,629)"/>
<path d="M0 0 C2.475 0.495 2.475 0.495 5 1 C5 1.33 5 1.66 5 2 C3.35 2 1.7 2 0 2 C0 1.34 0 0.68 0 0 Z " fill="#D8580D" transform="translate(832,202)"/>
<path d="M0 0 C1.32 0.33 2.64 0.66 4 1 C3.01 1.495 3.01 1.495 2 2 C1.34 1.34 0.68 0.68 0 0 Z " fill="#D8570D" transform="translate(750,790)"/>
<path d="M0 0 C0.99 0.33 1.98 0.66 3 1 C2.67 1.66 2.34 2.32 2 3 C1.34 2.01 0.68 1.02 0 0 Z " fill="#D95C14" transform="translate(632,701)"/>
<path d="M0 0 C1.65 0 3.3 0 5 0 C5 0.33 5 0.66 5 1 C3.35 1 1.7 1 0 1 C0 0.67 0 0.34 0 0 Z " fill="#DE5C10" transform="translate(645,527)"/>
<path d="M0 0 C0.66 0.66 1.32 1.32 2 2 C1.01 2.495 1.01 2.495 0 3 C0 2.01 0 1.02 0 0 Z " fill="#0A90DB" transform="translate(325,749)"/>
<path d="M0 0 C0.33 0.66 0.66 1.32 1 2 C0.01 1.67 -0.98 1.34 -2 1 C-1.34 0.67 -0.68 0.34 0 0 Z " fill="#098FDA" transform="translate(349,734)"/>
<path d="M0 0 C0.33 0.99 0.66 1.98 1 3 C0.34 2.67 -0.32 2.34 -1 2 C-0.67 1.34 -0.34 0.68 0 0 Z " fill="#06A0F1" transform="translate(426,570)"/>
<path d="M0 0 C0.33 0.66 0.66 1.32 1 2 C0.01 1.67 -0.98 1.34 -2 1 C-1.34 0.67 -0.68 0.34 0 0 Z " fill="#049FF0" transform="translate(365,566)"/>
<path d="M0 0 C4 1 4 1 4 1 Z " fill="#DD590F" transform="translate(707,527)"/>
<path d="M0 0 C0.33 0.66 0.66 1.32 1 2 C0.01 1.67 -0.98 1.34 -2 1 C-1.34 0.67 -0.68 0.34 0 0 Z " fill="#E96210" transform="translate(583,478)"/>
<path d="M0 0 C0.99 0 1.98 0 3 0 C2.67 0.66 2.34 1.32 2 2 C1.34 1.34 0.68 0.68 0 0 Z " fill="#039EF1" transform="translate(371,390)"/>
<path d="M0 0 C4 1 4 1 4 1 Z " fill="#087DC1" transform="translate(220,292)"/>
<path d="M0 0 C0.99 0.33 1.98 0.66 3 1 C2.01 1.33 1.02 1.66 0 2 C0 1.34 0 0.68 0 0 Z " fill="#E05C0C" transform="translate(728,272)"/>
<path d="M0 0 C0.66 0.66 1.32 1.32 2 2 C1.34 2 0.68 2 0 2 C0 1.34 0 0.68 0 0 Z " fill="#9B3B0B" transform="translate(811,814)"/>
<path d="M0 0 C3 1 3 1 3 1 Z " fill="#D3550C" transform="translate(772,799)"/>
<path d="" fill="#CA540D" transform="translate(0,0)"/>
<path d="M0 0 C3 1 3 1 3 1 Z " fill="#D7570E" transform="translate(690,766)"/>
<path d="" fill="#DE580D" transform="translate(0,0)"/>
<path d="M0 0 C0.66 0.66 1.32 1.32 2 2 C1.34 2 0.68 2 0 2 C0 1.34 0 0.68 0 0 Z " fill="#DB5C13" transform="translate(627,693)"/>
<path d="M0 0 C0.66 0 1.32 0 2 0 C1.67 0.66 1.34 1.32 1 2 C0.67 1.34 0.34 0.68 0 0 Z " fill="#D15B19" transform="translate(602,662)"/>
<path d="M0 0 C0.66 0 1.32 0 2 0 C1.67 0.66 1.34 1.32 1 2 C0.67 1.34 0.34 0.68 0 0 Z " fill="#73747F" transform="translate(534,608)"/>
<path d="M0 0 C0.66 0 1.32 0 2 0 C1.67 0.66 1.34 1.32 1 2 C0.67 1.34 0.34 0.68 0 0 Z " fill="#637B93" transform="translate(517,584)"/>
<path d="M0 0 C0.66 0.66 1.32 1.32 2 2 C1.34 2 0.68 2 0 2 C0 1.34 0 0.68 0 0 Z " fill="#C26230" transform="translate(536,576)"/>
<path d="M0 0 C0.33 0.66 0.66 1.32 1 2 C0.34 1.67 -0.32 1.34 -1 1 C-0.67 0.67 -0.34 0.34 0 0 Z " fill="#C36432" transform="translate(529,566)"/>
<path d="M0 0 C3 1 3 1 3 1 Z " fill="#D9580F" transform="translate(715,527)"/>
<path d="M0 0 C0.66 0.66 1.32 1.32 2 2 C1.34 2 0.68 2 0 2 C0 1.34 0 0.68 0 0 Z " fill="#AF6546" transform="translate(488,512)"/>
<path d="" fill="#F26211" transform="translate(0,0)"/>
<path d="" fill="#757C8D" transform="translate(0,0)"/>
<path d="M0 0 C3 1 3 1 3 1 Z " fill="#05A2F2" transform="translate(409,440)"/>
<path d="M0 0 C0.33 0.66 0.66 1.32 1 2 C0.34 1.67 -0.32 1.34 -1 1 C-0.67 0.67 -0.34 0.34 0 0 Z " fill="#0A8CD8" transform="translate(285,414)"/>
<path d="M0 0 C0.66 0 1.32 0 2 0 C1.67 0.66 1.34 1.32 1 2 C0.67 1.34 0.34 0.68 0 0 Z " fill="#05A0F1" transform="translate(456,404)"/>
<path d="M0 0 C0.33 0.66 0.66 1.32 1 2 C0.34 1.67 -0.32 1.34 -1 1 C-0.67 0.67 -0.34 0.34 0 0 Z " fill="#E86212" transform="translate(695,398)"/>
<path d="M0 0 C3 1 3 1 3 1 Z " fill="#049EF1" transform="translate(428,391)"/>
<path d="M0 0 C3 1 3 1 3 1 Z " fill="#0B8AD3" transform="translate(232,347)"/>
<path d="M0 0 C0.66 0.66 1.32 1.32 2 2 C1.34 2 0.68 2 0 2 C0 1.34 0 0.68 0 0 Z " fill="#0B81C7" transform="translate(209,314)"/>
<path d="M0 0 C3 1 3 1 3 1 Z " fill="#E2590D" transform="translate(680,304)"/>
<path d="M0 0 C0.99 0.495 0.99 0.495 2 1 C1.01 1.495 1.01 1.495 0 2 C0 1.34 0 0.68 0 0 Z " fill="#DB5A0F" transform="translate(828,302)"/>
<path d="M0 0 C3 1 3 1 3 1 Z " fill="#098BD7" transform="translate(334,293)"/>
<path d="M0 0 C3 1 3 1 3 1 Z " fill="#068CD8" transform="translate(314,293)"/>
<path d="M0 0 C3 1 3 1 3 1 Z " fill="#0782C9" transform="translate(229,292)"/>
<path d="M0 0 C0.99 0.495 0.99 0.495 2 1 C1.01 1.495 1.01 1.495 0 2 C0 1.34 0 0.68 0 0 Z " fill="#E25C0C" transform="translate(762,250)"/>
<path d="" fill="#0B5984" transform="translate(0,0)"/>
<path d="M0 0 C2 1 2 1 2 1 Z " fill="#0890DD" transform="translate(184,839)"/>
<path d="M0 0 C2 1 2 1 2 1 Z " fill="#C6500F" transform="translate(793,807)"/>
<path d="M0 0 C2 1 2 1 2 1 Z " fill="#D4550D" transform="translate(770,798)"/>
<path d="M0 0 C2 1 2 1 2 1 Z " fill="#DA580D" transform="translate(744,788)"/>
<path d="" fill="#DB580E" transform="translate(0,0)"/>
<path d="M0 0 C2 1 2 1 2 1 Z " fill="#D5570F" transform="translate(693,767)"/>
<path d="M0 0 C2 1 2 1 2 1 Z " fill="#D75C16" transform="translate(664,743)"/>
<path d="M0 0 C2 1 2 1 2 1 Z " fill="#D85911" transform="translate(641,713)"/>
<path d="" fill="#DD5E10" transform="translate(0,0)"/>
<path d="M0 0 C2 1 2 1 2 1 Z " fill="#04A5EF" transform="translate(309,664)"/>
<path d="" fill="#D25E19" transform="translate(0,0)"/>
<path d="M0 0 C2 1 2 1 2 1 Z " fill="#D25C19" transform="translate(594,652)"/>
<path d="M0 0 C2 1 2 1 2 1 Z " fill="#168ACF" transform="translate(484,647)"/>
<path d="M0 0 C2 1 2 1 2 1 Z " fill="#06A1F2" transform="translate(357,632)"/>
<path d="" fill="#DF5E0F" transform="translate(0,0)"/>
<path d="" fill="#D05D20" transform="translate(0,0)"/>
<path d="" fill="#E2600F" transform="translate(0,0)"/>
<path d="M0 0 C2 1 2 1 2 1 Z " fill="#E55D10" transform="translate(643,592)"/>
<path d="" fill="#597B97" transform="translate(0,0)"/>
<path d="" fill="#567FA2" transform="translate(0,0)"/>
<path d="" fill="#5481A6" transform="translate(0,0)"/>
<path d="" fill="#0789D3" transform="translate(0,0)"/>
<path d="M0 0 C2 1 2 1 2 1 Z " fill="#4C87B0" transform="translate(502,568)"/>
<path d="" fill="#059FF1" transform="translate(0,0)"/>
<path d="" fill="#05A1F2" transform="translate(0,0)"/>
<path d="M0 0 C2 1 2 1 2 1 Z " fill="#DC5910" transform="translate(712,527)"/>
<path d="M0 0 C2 1 2 1 2 1 Z " fill="#E15E10" transform="translate(696,527)"/>
<path d="M0 0 C2 1 2 1 2 1 Z " fill="#E86110" transform="translate(664,527)"/>
<path d="M0 0 C2 1 2 1 2 1 Z " fill="#E15F11" transform="translate(653,527)"/>
<path d="" fill="#E25F11" transform="translate(0,0)"/>
<path d="M0 0 C2 1 2 1 2 1 Z " fill="#BC643B" transform="translate(496,523)"/>
<path d="" fill="#328AC4" transform="translate(0,0)"/>
<path d="M0 0 C2 1 2 1 2 1 Z " fill="#278FD1" transform="translate(453,506)"/>
<path d="" fill="#EC6211" transform="translate(0,0)"/>
<path d="M0 0 C2 1 2 1 2 1 Z " fill="#EC6111" transform="translate(565,491)"/>
<path d="M0 0 C2 1 2 1 2 1 Z " fill="#099BEA" transform="translate(354,480)"/>
<path d="" fill="#557F9E" transform="translate(0,0)"/>
<path d="" fill="#DF5C0F" transform="translate(0,0)"/>
<path d="M0 0 C2 1 2 1 2 1 Z " fill="#EC6110" transform="translate(606,463)"/>
<path d="M0 0 C2 1 2 1 2 1 Z " fill="#F1630F" transform="translate(603,463)"/>
<path d="" fill="#6A8095" transform="translate(0,0)"/>
<path d="M0 0 C2 1 2 1 2 1 Z " fill="#ED6210" transform="translate(615,455)"/>
<path d="M0 0 C2 1 2 1 2 1 Z " fill="#EE610F" transform="translate(619,452)"/>
<path d="M0 0 C2 1 2 1 2 1 Z " fill="#B86C49" transform="translate(539,449)"/>
<path d="M0 0 C2 1 2 1 2 1 Z " fill="#F1630E" transform="translate(629,445)"/>
<path d="" fill="#7C7B85" transform="translate(0,0)"/>
<path d="M0 0 C2 1 2 1 2 1 Z " fill="#02A1F5" transform="translate(418,434)"/>
<path d="M0 0 C2 1 2 1 2 1 Z " fill="#EE630F" transform="translate(648,431)"/>
<path d="M0 0 C2 1 2 1 2 1 Z " fill="#EF6210" transform="translate(650,430)"/>
<path d="M0 0 C2 1 2 1 2 1 Z " fill="#BA6945" transform="translate(553,429)"/>
<path d="" fill="#6C7D92" transform="translate(0,0)"/>
<path d="M0 0 C2 1 2 1 2 1 Z " fill="#089EEA" transform="translate(432,424)"/>
<path d="M0 0 C2 1 2 1 2 1 Z " fill="#BD6A40" transform="translate(561,413)"/>
<path d="M0 0 C2 1 2 1 2 1 Z " fill="#02A1F6" transform="translate(450,408)"/>
<path d="" fill="#D85811" transform="translate(0,0)"/>
<path d="" fill="#069DED" transform="translate(0,0)"/>
<path d="M0 0 C2 1 2 1 2 1 Z " fill="#EF610E" transform="translate(684,406)"/>
<path d="" fill="#6F7C8C" transform="translate(0,0)"/>
<path d="" fill="#BD683D" transform="translate(0,0)"/>
<path d="" fill="#DA580F" transform="translate(0,0)"/>
<path d="" fill="#BF683F" transform="translate(0,0)"/>
<path d="" fill="#DB560E" transform="translate(0,0)"/>
<path d="M0 0 C2 1 2 1 2 1 Z " fill="#02A0F4" transform="translate(416,391)"/>
<path d="M0 0 C2 1 2 1 2 1 Z " fill="#03A0F3" transform="translate(412,391)"/>
<path d="M0 0 C2 1 2 1 2 1 Z " fill="#019FF4" transform="translate(408,391)"/>
<path d="" fill="#02A1F4" transform="translate(0,0)"/>
<path d="M0 0 C2 1 2 1 2 1 Z " fill="#03A2F3" transform="translate(388,390)"/>
<path d="" fill="#088AD6" transform="translate(0,0)"/>
<path d="" fill="#67768E" transform="translate(0,0)"/>
<path d="" fill="#0989D4" transform="translate(0,0)"/>
<path d="M0 0 C2 1 2 1 2 1 Z " fill="#D55A1A" transform="translate(608,352)"/>
<path d="" fill="#3480B9" transform="translate(0,0)"/>
<path d="M0 0 C2 1 2 1 2 1 Z " fill="#357EB3" transform="translate(550,344)"/>
<path d="" fill="#DE5A10" transform="translate(0,0)"/>
<path d="M0 0 C2 1 2 1 2 1 Z " fill="#DC5A0F" transform="translate(812,340)"/>
<path d="M0 0 C2 1 2 1 2 1 Z " fill="#D95915" transform="translate(632,336)"/>
<path d="M0 0 C2 1 2 1 2 1 Z " fill="#E45A0C" transform="translate(652,323)"/>
<path d="M0 0 C2 1 2 1 2 1 Z " fill="#E05C11" transform="translate(656,320)"/>
<path d="M0 0 C2 1 2 1 2 1 Z " fill="#078ED9" transform="translate(303,293)"/>
<path d="M0 0 C2 1 2 1 2 1 Z " fill="#E25A0D" transform="translate(705,288)"/>
<path d="M0 0 C2 1 2 1 2 1 Z " fill="#DB5A0F" transform="translate(845,263)"/>
<path d="" fill="#DF5B0D" transform="translate(0,0)"/>
<path d="" fill="#D45712" transform="translate(0,0)"/>
<path d="" fill="#D1510D" transform="translate(0,0)"/>
<path d="M0 0 C2 1 2 1 2 1 Z " fill="#D65710" transform="translate(840,200)"/>
<path d="M0 0 C2 1 2 1 2 1 Z " fill="#D4530C" transform="translate(852,192)"/>
<path d="" fill="#000000" transform="translate(0,0)"/>
<path d="" fill="#000000" transform="translate(0,0)"/>
<path d="" fill="#000407" transform="translate(0,0)"/>
<path d="" fill="#000000" transform="translate(0,0)"/>
<path d="" fill="#080000" transform="translate(0,0)"/>
<path d="" fill="#0D0200" transform="translate(0,0)"/>
<path d="" fill="#0C6091" transform="translate(0,0)"/>
<path d="" fill="#0D5F93" transform="translate(0,0)"/>
<path d="" fill="#0B7BBF" transform="translate(0,0)"/>
<path d="" fill="#0C6EA6" transform="translate(0,0)"/>
<path d="" fill="#0990D8" transform="translate(0,0)"/>
<path d="" fill="#0D79B6" transform="translate(0,0)"/>
<path d="" fill="#0C74B3" transform="translate(0,0)"/>
<path d="" fill="#088CD8" transform="translate(0,0)"/>
<path d="" fill="#0A90DB" transform="translate(0,0)"/>
<path d="" fill="#0990DD" transform="translate(0,0)"/>
<path d="" fill="#0698E3" transform="translate(0,0)"/>
<path d="" fill="#0A91E0" transform="translate(0,0)"/>
<path d="" fill="#0C85CA" transform="translate(0,0)"/>
<path d="" fill="#0991DD" transform="translate(0,0)"/>
<path d="" fill="#098FD6" transform="translate(0,0)"/>
<path d="" fill="#963D07" transform="translate(0,0)"/>
<path d="" fill="#0D8DDC" transform="translate(0,0)"/>
<path d="" fill="#0892DE" transform="translate(0,0)"/>
<path d="" fill="#CB510C" transform="translate(0,0)"/>
<path d="" fill="#078EDB" transform="translate(0,0)"/>
<path d="" fill="#D0530C" transform="translate(0,0)"/>
<path d="" fill="#0C92DA" transform="translate(0,0)"/>
<path d="" fill="#0B88CF" transform="translate(0,0)"/>
<path d="" fill="#D2540D" transform="translate(0,0)"/>
<path d="" fill="#0B89D0" transform="translate(0,0)"/>
<path d="" fill="#C84F0A" transform="translate(0,0)"/>
<path d="" fill="#D2570E" transform="translate(0,0)"/>
<path d="" fill="#D6580C" transform="translate(0,0)"/>
<path d="" fill="#0A8AD2" transform="translate(0,0)"/>
<path d="" fill="#CB530E" transform="translate(0,0)"/>
<path d="" fill="#D75710" transform="translate(0,0)"/>
<path d="" fill="#098FD9" transform="translate(0,0)"/>
<path d="" fill="#D8580E" transform="translate(0,0)"/>
<path d="" fill="#0E8AD4" transform="translate(0,0)"/>
<path d="" fill="#D55611" transform="translate(0,0)"/>
<path d="" fill="#DA540C" transform="translate(0,0)"/>
<path d="" fill="#0C88CF" transform="translate(0,0)"/>
<path d="" fill="#0B90D9" transform="translate(0,0)"/>
<path d="" fill="#DA580E" transform="translate(0,0)"/>
<path d="" fill="#078CD9" transform="translate(0,0)"/>
<path d="" fill="#CD550C" transform="translate(0,0)"/>
<path d="" fill="#0A88D1" transform="translate(0,0)"/>
<path d="" fill="#0891DC" transform="translate(0,0)"/>
<path d="" fill="#0C8DD8" transform="translate(0,0)"/>
<path d="" fill="#088FD9" transform="translate(0,0)"/>
<path d="" fill="#D8580F" transform="translate(0,0)"/>
<path d="" fill="#D05812" transform="translate(0,0)"/>
<path d="" fill="#D05710" transform="translate(0,0)"/>
<path d="" fill="#0A90D9" transform="translate(0,0)"/>
<path d="" fill="#0D8FD9" transform="translate(0,0)"/>
<path d="" fill="#DB590E" transform="translate(0,0)"/>
<path d="" fill="#DA5712" transform="translate(0,0)"/>
<path d="" fill="#0890DD" transform="translate(0,0)"/>
<path d="" fill="#D2550C" transform="translate(0,0)"/>
<path d="" fill="#E2590E" transform="translate(0,0)"/>
<path d="" fill="#0A93DC" transform="translate(0,0)"/>
<path d="" fill="#098CD8" transform="translate(0,0)"/>
<path d="" fill="#DA5B13" transform="translate(0,0)"/>
<path d="" fill="#0C92DA" transform="translate(0,0)"/>
<path d="" fill="#0B8ED8" transform="translate(0,0)"/>
<path d="" fill="#0B8ED8" transform="translate(0,0)"/>
<path d="" fill="#D65B13" transform="translate(0,0)"/>
<path d="" fill="#068EDA" transform="translate(0,0)"/>
<path d="" fill="#078BD5" transform="translate(0,0)"/>
<path d="" fill="#0A92DE" transform="translate(0,0)"/>
<path d="" fill="#0C0200" transform="translate(0,0)"/>
<path d="" fill="#098CD6" transform="translate(0,0)"/>
<path d="" fill="#D95B12" transform="translate(0,0)"/>
<path d="" fill="#098BD7" transform="translate(0,0)"/>
<path d="" fill="#DD5A0E" transform="translate(0,0)"/>
<path d="" fill="#D75A0F" transform="translate(0,0)"/>
<path d="" fill="#DD590D" transform="translate(0,0)"/>
<path d="" fill="#098CD4" transform="translate(0,0)"/>
<path d="" fill="#D1540E" transform="translate(0,0)"/>
<path d="" fill="#E8580F" transform="translate(0,0)"/>
<path d="" fill="#DD5A10" transform="translate(0,0)"/>
<path d="" fill="#0C8CD6" transform="translate(0,0)"/>
<path d="" fill="#098CD7" transform="translate(0,0)"/>
<path d="" fill="#DE5C0D" transform="translate(0,0)"/>
<path d="" fill="#C9530D" transform="translate(0,0)"/>
<path d="" fill="#0B8CD8" transform="translate(0,0)"/>
<path d="" fill="#DD5C10" transform="translate(0,0)"/>
<path d="" fill="#0C8BD5" transform="translate(0,0)"/>
<path d="" fill="#0993DC" transform="translate(0,0)"/>
<path d="" fill="#0989D3" transform="translate(0,0)"/>
<path d="" fill="#0D8FD8" transform="translate(0,0)"/>
<path d="" fill="#0B8FD8" transform="translate(0,0)"/>
<path d="" fill="#088AD5" transform="translate(0,0)"/>
<path d="" fill="#0B8EDA" transform="translate(0,0)"/>
<path d="" fill="#E35A0B" transform="translate(0,0)"/>
<path d="" fill="#068ED9" transform="translate(0,0)"/>
<path d="" fill="#0C8DD4" transform="translate(0,0)"/>
<path d="" fill="#088ED4" transform="translate(0,0)"/>
<path d="" fill="#0B90DB" transform="translate(0,0)"/>
<path d="" fill="#DC5C11" transform="translate(0,0)"/>
<path d="" fill="#D9590F" transform="translate(0,0)"/>
<path d="" fill="#D75C16" transform="translate(0,0)"/>
<path d="" fill="#0F8ED7" transform="translate(0,0)"/>
<path d="" fill="#D55D13" transform="translate(0,0)"/>
<path d="" fill="#E15C0F" transform="translate(0,0)"/>
<path d="" fill="#0B8ED8" transform="translate(0,0)"/>
<path d="" fill="#DC5B12" transform="translate(0,0)"/>
<path d="" fill="#D95E15" transform="translate(0,0)"/>
<path d="" fill="#D85B15" transform="translate(0,0)"/>
<path d="" fill="#088ED9" transform="translate(0,0)"/>
<path d="" fill="#0C8AD3" transform="translate(0,0)"/>
<path d="" fill="#0C8AD3" transform="translate(0,0)"/>
<path d="" fill="#DD5C11" transform="translate(0,0)"/>
<path d="" fill="#E25D0A" transform="translate(0,0)"/>
<path d="" fill="#D35E19" transform="translate(0,0)"/>
<path d="" fill="#0785CF" transform="translate(0,0)"/>
<path d="" fill="#D85D17" transform="translate(0,0)"/>
<path d="" fill="#D65B17" transform="translate(0,0)"/>
<path d="" fill="#0E8DD6" transform="translate(0,0)"/>
<path d="" fill="#DF5F10" transform="translate(0,0)"/>
<path d="" fill="#E05B0F" transform="translate(0,0)"/>
<path d="" fill="#108FD6" transform="translate(0,0)"/>
<path d="" fill="#05A3F5" transform="translate(0,0)"/>
<path d="" fill="#0E8CD7" transform="translate(0,0)"/>
<path d="" fill="#DE5A10" transform="translate(0,0)"/>
<path d="" fill="#E85D0B" transform="translate(0,0)"/>
<path d="" fill="#02A6F4" transform="translate(0,0)"/>
<path d="" fill="#0F8AD3" transform="translate(0,0)"/>
<path d="" fill="#D45C17" transform="translate(0,0)"/>
<path d="" fill="#068BD4" transform="translate(0,0)"/>
<path d="" fill="#1A8ACE" transform="translate(0,0)"/>
<path d="" fill="#E05D0F" transform="translate(0,0)"/>
<path d="" fill="#D75C18" transform="translate(0,0)"/>
<path d="" fill="#E05E10" transform="translate(0,0)"/>
<path d="" fill="#07A2F3" transform="translate(0,0)"/>
<path d="" fill="#DF5E1A" transform="translate(0,0)"/>
<path d="" fill="#05A2F0" transform="translate(0,0)"/>
<path d="" fill="#CA5E22" transform="translate(0,0)"/>
<path d="" fill="#1B88C8" transform="translate(0,0)"/>
<path d="" fill="#D85E1A" transform="translate(0,0)"/>
<path d="" fill="#05A2F6" transform="translate(0,0)"/>
<path d="" fill="#DE5D0E" transform="translate(0,0)"/>
<path d="" fill="#208DC8" transform="translate(0,0)"/>
<path d="" fill="#070000" transform="translate(0,0)"/>
<path d="" fill="#652704" transform="translate(0,0)"/>
<path d="" fill="#03A3F2" transform="translate(0,0)"/>
<path d="" fill="#D85C1A" transform="translate(0,0)"/>
<path d="" fill="#E35D0F" transform="translate(0,0)"/>
<path d="" fill="#387FB0" transform="translate(0,0)"/>
<path d="" fill="#03A5F3" transform="translate(0,0)"/>
<path d="" fill="#000000" transform="translate(0,0)"/>
<path d="" fill="#D35F1E" transform="translate(0,0)"/>
<path d="" fill="#C85D26" transform="translate(0,0)"/>
<path d="" fill="#417AA0" transform="translate(0,0)"/>
<path d="" fill="#397CA9" transform="translate(0,0)"/>
<path d="" fill="#08A0F1" transform="translate(0,0)"/>
<path d="" fill="#3E7DA2" transform="translate(0,0)"/>
<path d="" fill="#CB5E25" transform="translate(0,0)"/>
<path d="" fill="#C96025" transform="translate(0,0)"/>
<path d="" fill="#E75F0C" transform="translate(0,0)"/>
<path d="" fill="#089EEB" transform="translate(0,0)"/>
<path d="" fill="#577380" transform="translate(0,0)"/>
<path d="" fill="#0A86CC" transform="translate(0,0)"/>
<path d="" fill="#E45E0E" transform="translate(0,0)"/>
<path d="" fill="#088DD7" transform="translate(0,0)"/>
<path d="" fill="#02A1F5" transform="translate(0,0)"/>
<path d="" fill="#06A0F3" transform="translate(0,0)"/>
<path d="" fill="#05A0F4" transform="translate(0,0)"/>
<path d="" fill="#69798A" transform="translate(0,0)"/>
<path d="" fill="#0AA0F0" transform="translate(0,0)"/>
<path d="" fill="#E05E10" transform="translate(0,0)"/>
<path d="" fill="#4C86A1" transform="translate(0,0)"/>
<path d="" fill="#07A2F3" transform="translate(0,0)"/>
<path d="" fill="#069EED" transform="translate(0,0)"/>
<path d="" fill="#CA5E25" transform="translate(0,0)"/>
<path d="" fill="#04A3F5" transform="translate(0,0)"/>
<path d="" fill="#E35F0D" transform="translate(0,0)"/>
<path d="" fill="#04A2F1" transform="translate(0,0)"/>
<path d="" fill="#647991" transform="translate(0,0)"/>
<path d="" fill="#E56011" transform="translate(0,0)"/>
<path d="" fill="#059FEF" transform="translate(0,0)"/>
<path d="" fill="#0A87D2" transform="translate(0,0)"/>
<path d="" fill="#EC630E" transform="translate(0,0)"/>
<path d="" fill="#049DF1" transform="translate(0,0)"/>
<path d="" fill="#0A89D2" transform="translate(0,0)"/>
<path d="" fill="#04A3F4" transform="translate(0,0)"/>
<path d="" fill="#0A88D2" transform="translate(0,0)"/>
<path d="" fill="#ED600E" transform="translate(0,0)"/>
<path d="" fill="#06A4F1" transform="translate(0,0)"/>
<path d="" fill="#6E7A89" transform="translate(0,0)"/>
<path d="" fill="#05A0F4" transform="translate(0,0)"/>
<path d="" fill="#BF6132" transform="translate(0,0)"/>
<path d="" fill="#06A1F2" transform="translate(0,0)"/>
<path d="" fill="#BF6539" transform="translate(0,0)"/>
<path d="" fill="#05A0F1" transform="translate(0,0)"/>
<path d="" fill="#029FF2" transform="translate(0,0)"/>
<path d="" fill="#02A1EF" transform="translate(0,0)"/>
<path d="" fill="#02A0F4" transform="translate(0,0)"/>
<path d="" fill="#000000" transform="translate(0,0)"/>
<path d="" fill="#E8600E" transform="translate(0,0)"/>
<path d="" fill="#E96312" transform="translate(0,0)"/>
<path d="" fill="#079EF0" transform="translate(0,0)"/>
<path d="" fill="#BB6537" transform="translate(0,0)"/>
<path d="" fill="#069FEE" transform="translate(0,0)"/>
<path d="" fill="#079FF4" transform="translate(0,0)"/>
<path d="" fill="#06A2F1" transform="translate(0,0)"/>
<path d="" fill="#BA663D" transform="translate(0,0)"/>
<path d="" fill="#03A0EF" transform="translate(0,0)"/>
<path d="" fill="#EB6111" transform="translate(0,0)"/>
<path d="" fill="#4F87AC" transform="translate(0,0)"/>
<path d="" fill="#C26435" transform="translate(0,0)"/>
<path d="" fill="#4B84AF" transform="translate(0,0)"/>
<path d="" fill="#099CEC" transform="translate(0,0)"/>
<path d="" fill="#EC6111" transform="translate(0,0)"/>
<path d="" fill="#BF653C" transform="translate(0,0)"/>
<path d="" fill="#ED610F" transform="translate(0,0)"/>
<path d="" fill="#C36838" transform="translate(0,0)"/>
<path d="" fill="#EC6311" transform="translate(0,0)"/>
<path d="" fill="#4688B6" transform="translate(0,0)"/>
<path d="" fill="#C1673B" transform="translate(0,0)"/>
<path d="" fill="#180500" transform="translate(0,0)"/>
<path d="" fill="#BF6436" transform="translate(0,0)"/>
<path d="" fill="#EC6111" transform="translate(0,0)"/>
<path d="" fill="#1086CC" transform="translate(0,0)"/>
<path d="" fill="#B86741" transform="translate(0,0)"/>
<path d="" fill="#358AC2" transform="translate(0,0)"/>
<path d="" fill="#078DD6" transform="translate(0,0)"/>
<path d="" fill="#E96113" transform="translate(0,0)"/>
<path d="" fill="#E25E13" transform="translate(0,0)"/>
<path d="" fill="#B66741" transform="translate(0,0)"/>
<path d="" fill="#BE6238" transform="translate(0,0)"/>
<path d="" fill="#3E8BC1" transform="translate(0,0)"/>
<path d="" fill="#E7610F" transform="translate(0,0)"/>
<path d="" fill="#EB6213" transform="translate(0,0)"/>
<path d="" fill="#0892DF" transform="translate(0,0)"/>
<path d="" fill="#CB5412" transform="translate(0,0)"/>
<path d="" fill="#B4653F" transform="translate(0,0)"/>
<path d="" fill="#B6653F" transform="translate(0,0)"/>
<path d="" fill="#AD6648" transform="translate(0,0)"/>
<path d="" fill="#BD6639" transform="translate(0,0)"/>
<path d="" fill="#B06747" transform="translate(0,0)"/>
<path d="" fill="#EE6314" transform="translate(0,0)"/>
<path d="" fill="#B9643E" transform="translate(0,0)"/>
<path d="" fill="#9F6A57" transform="translate(0,0)"/>
<path d="" fill="#DA5A0E" transform="translate(0,0)"/>
<path d="" fill="#288BCC" transform="translate(0,0)"/>
<path d="" fill="#0B99E2" transform="translate(0,0)"/>
<path d="" fill="#2A8CCC" transform="translate(0,0)"/>
<path d="" fill="#F26513" transform="translate(0,0)"/>
<path d="" fill="#ED6412" transform="translate(0,0)"/>
<path d="" fill="#0998E6" transform="translate(0,0)"/>
<path d="" fill="#E96113" transform="translate(0,0)"/>
<path d="" fill="#0A98E7" transform="translate(0,0)"/>
<path d="" fill="#EE6112" transform="translate(0,0)"/>
<path d="" fill="#8D6F65" transform="translate(0,0)"/>
<path d="" fill="#EE6412" transform="translate(0,0)"/>
<path d="" fill="#E86111" transform="translate(0,0)"/>
<path d="" fill="#F06312" transform="translate(0,0)"/>
<path d="" fill="#A26B54" transform="translate(0,0)"/>
<path d="" fill="#0A9BE8" transform="translate(0,0)"/>
<path d="" fill="#8F7369" transform="translate(0,0)"/>
<path d="" fill="#EF6211" transform="translate(0,0)"/>
<path d="" fill="#4584B2" transform="translate(0,0)"/>
<path d="" fill="#EC6214" transform="translate(0,0)"/>
<path d="" fill="#EF610F" transform="translate(0,0)"/>
<path d="" fill="#F26311" transform="translate(0,0)"/>
<path d="" fill="#DF5B0F" transform="translate(0,0)"/>
<path d="" fill="#EC6310" transform="translate(0,0)"/>
<path d="" fill="#AE6E52" transform="translate(0,0)"/>
<path d="" fill="#A3705B" transform="translate(0,0)"/>
<path d="" fill="#ED6213" transform="translate(0,0)"/>
<path d="" fill="#AD6D52" transform="translate(0,0)"/>
<path d="" fill="#6D7B8E" transform="translate(0,0)"/>
<path d="" fill="#59809E" transform="translate(0,0)"/>
<path d="" fill="#5586A9" transform="translate(0,0)"/>
<path d="" fill="#160600" transform="translate(0,0)"/>
<path d="" fill="#DB5B0D" transform="translate(0,0)"/>
<path d="" fill="#AB6D50" transform="translate(0,0)"/>
<path d="" fill="#EA6210" transform="translate(0,0)"/>
<path d="" fill="#F36111" transform="translate(0,0)"/>
<path d="" fill="#ED620E" transform="translate(0,0)"/>
<path d="" fill="#320F00" transform="translate(0,0)"/>
<path d="" fill="#EE6313" transform="translate(0,0)"/>
<path d="" fill="#EE6412" transform="translate(0,0)"/>
<path d="" fill="#5F83A3" transform="translate(0,0)"/>
<path d="" fill="#DB5C11" transform="translate(0,0)"/>
<path d="" fill="#EE6212" transform="translate(0,0)"/>
<path d="" fill="#EF620F" transform="translate(0,0)"/>
<path d="" fill="#B76A48" transform="translate(0,0)"/>
<path d="" fill="#F1630E" transform="translate(0,0)"/>
<path d="" fill="#B36B4B" transform="translate(0,0)"/>
<path d="" fill="#F16211" transform="translate(0,0)"/>
<path d="" fill="#9B7263" transform="translate(0,0)"/>
<path d="" fill="#D6590D" transform="translate(0,0)"/>
<path d="" fill="#EC6110" transform="translate(0,0)"/>
<path d="" fill="#EF610F" transform="translate(0,0)"/>
<path d="" fill="#AE7155" transform="translate(0,0)"/>
<path d="" fill="#668397" transform="translate(0,0)"/>
<path d="" fill="#DB590E" transform="translate(0,0)"/>
<path d="" fill="#C36A3F" transform="translate(0,0)"/>
<path d="" fill="#F16110" transform="translate(0,0)"/>
<path d="" fill="#BC6B41" transform="translate(0,0)"/>
<path d="" fill="#767F8D" transform="translate(0,0)"/>
<path d="" fill="#F15F0D" transform="translate(0,0)"/>
<path d="" fill="#DB590F" transform="translate(0,0)"/>
<path d="" fill="#847882" transform="translate(0,0)"/>
<path d="" fill="#080000" transform="translate(0,0)"/>
<path d="" fill="#EE6110" transform="translate(0,0)"/>
<path d="" fill="#83787E" transform="translate(0,0)"/>
<path d="" fill="#0B8CD7" transform="translate(0,0)"/>
<path d="" fill="#F06314" transform="translate(0,0)"/>
<path d="" fill="#C46A3F" transform="translate(0,0)"/>
<path d="" fill="#0D8FD8" transform="translate(0,0)"/>
<path d="" fill="#0C84CF" transform="translate(0,0)"/>
<path d="" fill="#797C8B" transform="translate(0,0)"/>
<path d="" fill="#049FF2" transform="translate(0,0)"/>
<path d="" fill="#0F8ACF" transform="translate(0,0)"/>
<path d="" fill="#F06413" transform="translate(0,0)"/>
<path d="" fill="#EF6211" transform="translate(0,0)"/>
<path d="" fill="#F16511" transform="translate(0,0)"/>
<path d="" fill="#EE6411" transform="translate(0,0)"/>
<path d="" fill="#05A1F2" transform="translate(0,0)"/>
<path d="" fill="#098AD6" transform="translate(0,0)"/>
<path d="" fill="#867A80" transform="translate(0,0)"/>
<path d="" fill="#D0550C" transform="translate(0,0)"/>
<path d="" fill="#EF6411" transform="translate(0,0)"/>
<path d="" fill="#ED6111" transform="translate(0,0)"/>
<path d="" fill="#ED6111" transform="translate(0,0)"/>
<path d="" fill="#737A85" transform="translate(0,0)"/>
<path d="" fill="#ED5F0D" transform="translate(0,0)"/>
<path d="" fill="#F06213" transform="translate(0,0)"/>
<path d="" fill="#EE6210" transform="translate(0,0)"/>
<path d="" fill="#0E8AD1" transform="translate(0,0)"/>
<path d="" fill="#BB6C47" transform="translate(0,0)"/>
<path d="" fill="#92756D" transform="translate(0,0)"/>
<path d="" fill="#068EDE" transform="translate(0,0)"/>
<path d="" fill="#F16310" transform="translate(0,0)"/>
<path d="" fill="#797A8B" transform="translate(0,0)"/>
<path d="" fill="#DC5B0E" transform="translate(0,0)"/>
<path d="" fill="#EE6210" transform="translate(0,0)"/>
<path d="" fill="#F2620F" transform="translate(0,0)"/>
<path d="" fill="#BD6840" transform="translate(0,0)"/>
<path d="" fill="#B16C4E" transform="translate(0,0)"/>
<path d="" fill="#02A2F5" transform="translate(0,0)"/>
<path d="" fill="#EE6210" transform="translate(0,0)"/>
<path d="" fill="#BF6B40" transform="translate(0,0)"/>
<path d="" fill="#B56B4C" transform="translate(0,0)"/>
<path d="" fill="#F0620F" transform="translate(0,0)"/>
<path d="" fill="#BB6741" transform="translate(0,0)"/>
<path d="" fill="#EF610E" transform="translate(0,0)"/>
<path d="" fill="#F0610E" transform="translate(0,0)"/>
<path d="" fill="#069FEC" transform="translate(0,0)"/>
<path d="" fill="#EF6411" transform="translate(0,0)"/>
<path d="" fill="#F0610F" transform="translate(0,0)"/>
<path d="" fill="#6A7A93" transform="translate(0,0)"/>
<path d="" fill="#EE610E" transform="translate(0,0)"/>
<path d="" fill="#04A1F2" transform="translate(0,0)"/>
<path d="" fill="#0C8ED8" transform="translate(0,0)"/>
<path d="" fill="#0C8ED6" transform="translate(0,0)"/>
<path d="" fill="#03A2F3" transform="translate(0,0)"/>
<path d="" fill="#108BD3" transform="translate(0,0)"/>
<path d="" fill="#02A5F3" transform="translate(0,0)"/>
<path d="" fill="#06A1F3" transform="translate(0,0)"/>
<path d="" fill="#F06210" transform="translate(0,0)"/>
<path d="" fill="#F26411" transform="translate(0,0)"/>
<path d="" fill="#EF6511" transform="translate(0,0)"/>
<path d="" fill="#817681" transform="translate(0,0)"/>
<path d="" fill="#02A3F4" transform="translate(0,0)"/>
<path d="" fill="#F36312" transform="translate(0,0)"/>
<path d="" fill="#0C8ED5" transform="translate(0,0)"/>
<path d="" fill="#D7580D" transform="translate(0,0)"/>
<path d="" fill="#F06211" transform="translate(0,0)"/>
<path d="" fill="#BF6A3E" transform="translate(0,0)"/>
<path d="" fill="#747B8F" transform="translate(0,0)"/>
<path d="" fill="#7E7A87" transform="translate(0,0)"/>
<path d="" fill="#069EED" transform="translate(0,0)"/>
<path d="" fill="#CB520B" transform="translate(0,0)"/>
<path d="" fill="#EC6411" transform="translate(0,0)"/>
<path d="" fill="#069BED" transform="translate(0,0)"/>
<path d="" fill="#EC6212" transform="translate(0,0)"/>
<path d="" fill="#F16413" transform="translate(0,0)"/>
<path d="" fill="#0B8CD7" transform="translate(0,0)"/>
<path d="" fill="#EE6113" transform="translate(0,0)"/>
<path d="" fill="#D5580D" transform="translate(0,0)"/>
<path d="" fill="#7A7886" transform="translate(0,0)"/>
<path d="" fill="#059DEF" transform="translate(0,0)"/>
<path d="" fill="#DD580E" transform="translate(0,0)"/>
<path d="" fill="#787A87" transform="translate(0,0)"/>
<path d="" fill="#039DF3" transform="translate(0,0)"/>
<path d="" fill="#DB5A0E" transform="translate(0,0)"/>
<path d="" fill="#C26A3C" transform="translate(0,0)"/>
<path d="" fill="#707C8F" transform="translate(0,0)"/>
<path d="" fill="#787989" transform="translate(0,0)"/>
<path d="" fill="#069EEF" transform="translate(0,0)"/>
<path d="" fill="#019EF5" transform="translate(0,0)"/>
<path d="" fill="#697D90" transform="translate(0,0)"/>
<path d="" fill="#04A3F2" transform="translate(0,0)"/>
<path d="" fill="#059BEF" transform="translate(0,0)"/>
<path d="" fill="#089EEF" transform="translate(0,0)"/>
<path d="" fill="#088ED7" transform="translate(0,0)"/>
<path d="" fill="#DA5810" transform="translate(0,0)"/>
<path d="" fill="#088ADA" transform="translate(0,0)"/>
<path d="" fill="#BE673E" transform="translate(0,0)"/>
<path d="" fill="#078FDA" transform="translate(0,0)"/>
<path d="" fill="#BF663B" transform="translate(0,0)"/>
<path d="" fill="#B46847" transform="translate(0,0)"/>
<path d="" fill="#0B8DD5" transform="translate(0,0)"/>
<path d="" fill="#B36947" transform="translate(0,0)"/>
<path d="" fill="#7E777E" transform="translate(0,0)"/>
<path d="" fill="#DB580F" transform="translate(0,0)"/>
<path d="" fill="#CC540E" transform="translate(0,0)"/>
<path d="" fill="#DB5A0F" transform="translate(0,0)"/>
<path d="" fill="#098AD7" transform="translate(0,0)"/>
<path d="" fill="#DC580D" transform="translate(0,0)"/>
<path d="" fill="#DC5811" transform="translate(0,0)"/>
<path d="" fill="#757286" transform="translate(0,0)"/>
<path d="" fill="#BD5F31" transform="translate(0,0)"/>
<path d="" fill="#C85F2A" transform="translate(0,0)"/>
<path d="" fill="#567E9F" transform="translate(0,0)"/>
<path d="" fill="#CB5E24" transform="translate(0,0)"/>
<path d="" fill="#D45C20" transform="translate(0,0)"/>
<path d="" fill="#3A88B2" transform="translate(0,0)"/>
<path d="" fill="#DD5A10" transform="translate(0,0)"/>
<path d="" fill="#4380AD" transform="translate(0,0)"/>
<path d="" fill="#D35F21" transform="translate(0,0)"/>
<path d="" fill="#0A8BD7" transform="translate(0,0)"/>
<path d="" fill="#D15D1D" transform="translate(0,0)"/>
<path d="" fill="#3A83B2" transform="translate(0,0)"/>
<path d="" fill="#0B86CD" transform="translate(0,0)"/>
<path d="" fill="#000000" transform="translate(0,0)"/>
<path d="" fill="#521F03" transform="translate(0,0)"/>
<path d="" fill="#088DD8" transform="translate(0,0)"/>
<path d="" fill="#D0550E" transform="translate(0,0)"/>
<path d="" fill="#D95B15" transform="translate(0,0)"/>
<path d="" fill="#0A88D0" transform="translate(0,0)"/>
<path d="" fill="#DC5915" transform="translate(0,0)"/>
<path d="" fill="#D95A0F" transform="translate(0,0)"/>
<path d="" fill="#D6550D" transform="translate(0,0)"/>
<path d="" fill="#DA5C17" transform="translate(0,0)"/>
<path d="" fill="#D85A16" transform="translate(0,0)"/>
<path d="" fill="#0B89D5" transform="translate(0,0)"/>
<path d="" fill="#0989D2" transform="translate(0,0)"/>
<path d="" fill="#DB5A0E" transform="translate(0,0)"/>
<path d="" fill="#2983C0" transform="translate(0,0)"/>
<path d="" fill="#DF5A10" transform="translate(0,0)"/>
<path d="" fill="#E1590F" transform="translate(0,0)"/>
<path d="" fill="#0D8CD5" transform="translate(0,0)"/>
<path d="" fill="#0D0400" transform="translate(0,0)"/>
<path d="" fill="#DF5B0F" transform="translate(0,0)"/>
<path d="" fill="#DF5911" transform="translate(0,0)"/>
<path d="" fill="#2585C2" transform="translate(0,0)"/>
<path d="" fill="#E25A10" transform="translate(0,0)"/>
<path d="" fill="#E25B0F" transform="translate(0,0)"/>
<path d="" fill="#E45A0E" transform="translate(0,0)"/>
<path d="" fill="#2286C2" transform="translate(0,0)"/>
<path d="" fill="#2187C7" transform="translate(0,0)"/>
<path d="" fill="#088DD6" transform="translate(0,0)"/>
<path d="" fill="#070100" transform="translate(0,0)"/>
<path d="" fill="#0C86CC" transform="translate(0,0)"/>
<path d="" fill="#D95B10" transform="translate(0,0)"/>
<path d="" fill="#DA5C0F" transform="translate(0,0)"/>
<path d="" fill="#2082C1" transform="translate(0,0)"/>
<path d="" fill="#1E84C0" transform="translate(0,0)"/>
<path d="" fill="#087CC3" transform="translate(0,0)"/>
<path d="" fill="#0583CA" transform="translate(0,0)"/>
<path d="" fill="#E25B0E" transform="translate(0,0)"/>
<path d="" fill="#E0590D" transform="translate(0,0)"/>
<path d="" fill="#E25B0E" transform="translate(0,0)"/>
<path d="" fill="#E25A0F" transform="translate(0,0)"/>
<path d="" fill="#1F81BE" transform="translate(0,0)"/>
<path d="" fill="#1B81C0" transform="translate(0,0)"/>
<path d="" fill="#0A81C4" transform="translate(0,0)"/>
<path d="" fill="#DC5B0F" transform="translate(0,0)"/>
<path d="" fill="#DE5B12" transform="translate(0,0)"/>
<path d="" fill="#DB5C0F" transform="translate(0,0)"/>
<path d="" fill="#DC5B10" transform="translate(0,0)"/>
<path d="" fill="#DA5B0F" transform="translate(0,0)"/>
<path d="" fill="#0974B5" transform="translate(0,0)"/>
<path d="" fill="#0775B7" transform="translate(0,0)"/>
<path d="" fill="#DD590E" transform="translate(0,0)"/>
<path d="" fill="#DC5B10" transform="translate(0,0)"/>
<path d="" fill="#1A7CB7" transform="translate(0,0)"/>
<path d="" fill="#E25A0F" transform="translate(0,0)"/>
<path d="" fill="#0A67A1" transform="translate(0,0)"/>
<path d="" fill="#E0570D" transform="translate(0,0)"/>
<path d="" fill="#0A8EDB" transform="translate(0,0)"/>
<path d="" fill="#088FDD" transform="translate(0,0)"/>
<path d="" fill="#088DDB" transform="translate(0,0)"/>
<path d="" fill="#098DDB" transform="translate(0,0)"/>
<path d="" fill="#098CD7" transform="translate(0,0)"/>
<path d="" fill="#088EDA" transform="translate(0,0)"/>
<path d="" fill="#088EDA" transform="translate(0,0)"/>
<path d="" fill="#0488D5" transform="translate(0,0)"/>
<path d="" fill="#0589D4" transform="translate(0,0)"/>
<path d="" fill="#0885CF" transform="translate(0,0)"/>
<path d="" fill="#076EAB" transform="translate(0,0)"/>
<path d="" fill="#BE4E0B" transform="translate(0,0)"/>
<path d="" fill="#DE5B0E" transform="translate(0,0)"/>
<path d="" fill="#DE5A0E" transform="translate(0,0)"/>
<path d="" fill="#DB5A10" transform="translate(0,0)"/>
<path d="" fill="#DC590C" transform="translate(0,0)"/>
<path d="" fill="#DB590E" transform="translate(0,0)"/>
<path d="" fill="#DF5B10" transform="translate(0,0)"/>
<path d="" fill="#DA5A0D" transform="translate(0,0)"/>
<path d="" fill="#E2590D" transform="translate(0,0)"/>
<path d="" fill="#E1580C" transform="translate(0,0)"/>
<path d="" fill="#DD5B0D" transform="translate(0,0)"/>
<path d="" fill="#D7580E" transform="translate(0,0)"/>
<path d="" fill="#DC5A10" transform="translate(0,0)"/>
<path d="" fill="#DD590F" transform="translate(0,0)"/>
<path d="" fill="#E8590A" transform="translate(0,0)"/>
<path d="" fill="#E25D0F" transform="translate(0,0)"/>
<path d="" fill="#DA590F" transform="translate(0,0)"/>
<path d="" fill="#E15A0D" transform="translate(0,0)"/>
<path d="" fill="#E65A0B" transform="translate(0,0)"/>
<path d="" fill="#DA5A10" transform="translate(0,0)"/>
<path d="" fill="#E55D0F" transform="translate(0,0)"/>
<path d="" fill="#E75B0D" transform="translate(0,0)"/>
<path d="" fill="#E25B0F" transform="translate(0,0)"/>
<path d="" fill="#E15C0E" transform="translate(0,0)"/>
<path d="" fill="#E15B0F" transform="translate(0,0)"/>
<path d="" fill="#D35610" transform="translate(0,0)"/>
<path d="" fill="#DB590D" transform="translate(0,0)"/>
<path d="" fill="#DC5A0D" transform="translate(0,0)"/>
<path d="" fill="#DE5C0E" transform="translate(0,0)"/>
<path d="" fill="#CA520E" transform="translate(0,0)"/>
<path d="" fill="#D2530D" transform="translate(0,0)"/>
<path d="" fill="#E45A0A" transform="translate(0,0)"/>
<path d="" fill="#DE590C" transform="translate(0,0)"/>
<path d="" fill="#D95A0C" transform="translate(0,0)"/>
<path d="" fill="#DE5A0E" transform="translate(0,0)"/>
<path d="" fill="#CE530D" transform="translate(0,0)"/>
<path d="" fill="#DC580C" transform="translate(0,0)"/>
<path d="" fill="#BE4B0D" transform="translate(0,0)"/>
<path d="" fill="#D7530C" transform="translate(0,0)"/>
<path d="" fill="#DA550B" transform="translate(0,0)"/>
<path d="" fill="#D5550D" transform="translate(0,0)"/>
<path d="" fill="#D0550D" transform="translate(0,0)"/>
<path d="" fill="#923909" transform="translate(0,0)"/>
<path d="" fill="#692703" transform="translate(0,0)"/>
<path d="" fill="#A84410" transform="translate(0,0)"/>
<path d="" fill="#A1430D" transform="translate(0,0)"/>
<path d="" fill="#963F0B" transform="translate(0,0)"/>
<path d="" fill="#9F4309" transform="translate(0,0)"/>
<path d="" fill="#150700" transform="translate(0,0)"/>
<path d="" fill="#00070B" transform="translate(0,0)"/>
<path d="" fill="#030000" transform="translate(0,0)"/>
<path d="" fill="#0D0200" transform="translate(0,0)"/>
<path d="" fill="#090300" transform="translate(0,0)"/>
<path d="" fill="#000000" transform="translate(0,0)"/>
</svg>
